<?xml version="1.0" encoding="UTF-8"?>
<!-- Generator: Adobe Illustrator 16.0.0, SVG Export Plug-In . SVG Version: 6.00 Build 0)  -->
<!DOCTYPE svg PUBLIC "-//W3C//DTD SVG 1.1//EN" "http://www.w3.org/Graphics/SVG/1.1/DTD/svg11.dtd">
<svg version="1.1" xmlns="http://www.w3.org/2000/svg" xmlns:xlink="http://www.w3.org/1999/xlink" x="0px" y="0px" width="3792px" height="740px" viewBox="0 0 3792 740" enable-background="new 0 0 3792 740" xml:space="preserve">
<g id="Layer_5" display="none">
	<rect x="-1187" y="-773" display="inline" fill="#170F22" width="5878" height="2011"/>
</g>
<g id="alphad_copy">
	<path fill="none" d="M1174.952,273.339c-33.196,0-62.724,24.704-70.444,59.444c-1.543,6.176-2.508,13.896-2.508,20.844v51.724   c0,9.265,0.965,17.756,2.508,24.705c7.721,31.651,34.837,55.584,68.805,55.584c50.952,0,81.108-42.461,81.108-106.537   C1254.421,318.888,1227.448,273.339,1174.952,273.339z"/>
	<path fill="none" d="M1989.275,448.584c0,30.108,20.023,44.776,46.271,44.776c29.336,0,53.343-19.3,61.063-43.231   c1.544-6.177,2.391-13.125,2.391-20.072v-40.916C2037,388.367,1989.275,403.036,1989.275,448.584z"/>
	<path fill="none" d="M1174.856,273.339c-33.196,0-62.628,24.704-70.349,59.444c-1.543,6.176-2.508,13.896-2.508,20.844v51.724   c0,9.265,0.965,17.756,2.508,24.705c7.721,31.651,34.933,55.584,68.9,55.584c50.952,0,81.013-42.461,81.013-106.537   C1254.421,318.888,1227.353,273.339,1174.856,273.339z"/>
	<g>
		<path fill="none" d="M1564.531,235h0.047c0.141-0.183,0.287-0.358,0.43-0.54c-0.121,0.136-0.236,0.268-0.367,0.415    C1564.604,234.916,1564.568,234.958,1564.531,235z"/>
		<path fill="#FFFFFF" d="M1564.531,244H1563V28h-117v444.156c3.971-13.024,49.75-138.906,116.114-225.377    C1563.205,245.335,1564.222,244.398,1564.531,244z"/>
		<path fill="#FFFFFF" d="M1671.938,190.471c-21.617,0-44.029,5.534-61.014,14.798c-17.507,9.483-32.275,21.343-44.271,36.118    c-0.544,0.69-0.888,1.175-1.646,2.072c-0.143,0.182-0.336,0.357-0.477,0.54l0,0c-0.811,0.918-1.613,1.849-2.417,2.779    C1548.663,264.582,1478.25,356.75,1446,471.866V576h117V352.592c0-8.492,0.789-18.528,3.877-26.248    c8.492-20.844,28.023-40.917,58.903-40.917c44.004,0,61.22,33.968,61.22,83.376V576h117V355.68    C1804,242.195,1746.822,190.471,1671.938,190.471z"/>
	</g>
	<g>
		<path fill="none" d="M2088,316"/>
		<linearGradient id="SVGID_1_" gradientUnits="userSpaceOnUse" x1="2087.7246" y1="316" x2="2088.1543" y2="316">
			<stop offset="0.2092" style="stop-color:#FFFFFF"/>
			<stop offset="0.3546" style="stop-color:#FFE5EC"/>
			<stop offset="0.6661" style="stop-color:#FFA2BA"/>
			<stop offset="1" style="stop-color:#FF5481"/>
		</linearGradient>
		<path fill="url(#SVGID_1_)" d="M2088,316C2088,316,2088.011,316,2088,316"/>
		<g>
			<path fill="#FFFFFF" d="M2088.031,316c-0.011,0-0.021,0-0.031,0l0.259,6.207L2088.031,316z"/>
			<g>
				<path fill="#FFFFFF" d="M2088.031,316c-0.011,0-0.021,0-0.031,0l0.259,6.207L2088.031,316z"/>
				<g>
					<path fill="#FFFFFF" d="M2087.906,316c-0.011,0-0.021,0-0.031,0l0.259,6.207L2087.906,316z"/>
					<path fill="#FFFFFF" d="M2040.121,191.238c-68.707,0-120.381,18.528-146.629,33.196l21.642,75.657       c24.705-15.44,65.59-28.564,104.19-28.564c57.898,0,68.676,28.564,68.676,48.636v5.401       c-133-0.688-221.525,46.407-221.525,144.368c0,60.217,45.574,115.979,122.002,115.979c44.775,0,83.387-16.143,108.092-46.143       c58.518-54,96.606-101.287,105.997-141.197c1.402-5.96,2.468-8.554,3.341-18.774c0.061-0.708,0.096-1.092,0.096-1.092       s-0.002-0.155-0.002-0.173v-24.4C2206,265.35,2165.959,191.238,2040.121,191.238z M2088.131,328l0.228,6.207L2088.1,328       C2088.11,328,2088.12,328,2088.131,328z M2089.822,459.803c-7.72,23.932-31.747,43.279-61.083,43.279       c-0.752,0-1.522,0.001-2.265-0.024c-0.086-0.002-0.186,0.011-0.27,0.009c-0.626-0.023-1.251-0.054-1.868-0.095       c-0.27-0.018-0.544-0.029-0.812-0.051c-0.586-0.045-1.168-0.097-1.746-0.159c-0.281-0.029-0.562-0.062-0.841-0.095       c-0.578-0.07-1.157-0.14-1.728-0.226c-0.188-0.027-0.372-0.063-0.559-0.092c-0.596-0.096-1.195-0.184-1.781-0.295       c-0.346-0.066-0.679-0.152-1.02-0.225c-0.033-0.008-0.066-0.016-0.1-0.021c-7.11-1.518-13.441-4.371-18.638-8.57       c-0.018-0.016-0.035-0.027-0.053-0.043c-0.249-0.201-0.51-0.389-0.754-0.598c-1.188-0.992-2.307-2.066-3.366-3.205       c0.057,0.08,0.11,0.16,0.188,0.24c-0.149-0.16-0.289-0.33-0.436-0.494c-0.021-0.021-0.041-0.045-0.061-0.068       c-0.408-0.455-0.805-0.922-1.191-1.4c-0.241-0.293-0.479-0.588-0.711-0.891c-0.055-0.072-0.106-0.146-0.161-0.219       c-0.356-0.471-0.717-0.938-1.054-1.43c2.414,3.615,5.367,6.686,8.775,9.207c5.229,3.848,11.492,6.432,18.443,7.768       c-6.978-1.336-13.236-3.918-18.443-7.768c-7.161-5.271-12.366-12.924-14.744-22.975c-0.004-0.02-0.01-0.039-0.015-0.061       c-0.184-0.779-0.354-1.57-0.504-2.379c-0.005-0.025-0.009-0.053-0.013-0.078c-0.015-0.076-0.024-0.156-0.038-0.232       c-0.034-0.191-0.061-0.387-0.093-0.58c-0.021-0.119-0.039-0.242-0.059-0.363c-0.051-0.32-0.107-0.637-0.154-0.963       c-0.002-0.021-0.007-0.041-0.01-0.063c-0.026-0.188-0.05-0.377-0.074-0.564c-0.012-0.086-0.019-0.176-0.029-0.264       c-0.032-0.254-0.058-0.514-0.086-0.771c-0.028-0.252-0.061-0.5-0.085-0.754c-0.001-0.014-0.003-0.025-0.004-0.037       c-0.017-0.166-0.031-0.332-0.046-0.5c-0.009-0.088-0.018-0.178-0.025-0.268c-0.002-0.018-0.002-0.035-0.004-0.053       c-0.032-0.395-0.053-0.799-0.078-1.199c-0.01-0.178-0.025-0.354-0.034-0.531c-0.003-0.053-0.006-0.104-0.009-0.156       c-0.011-0.191-0.023-0.383-0.032-0.576c-0.027-0.67-0.038-0.236-0.044-0.922c-0.001-0.057-0.004,0.951-0.004,0.951H1982       c0,0,0-2.219,0-2.232c0,0.014,0,0.027,0,0.041l0,0v-0.455c0,0,0,0,0-0.002s0-0.002,0-0.002c0-0.002,0-0.002,0-0.002       c0-0.08,0.174-0.156,0.174-0.234c0-0.09,0.035-0.18,0.037-0.271c0.082-5.629,0.9-10.782,2.379-15.48       c0.154-0.488,0.319-0.974,0.487-1.452c0.053-0.151,0.116-0.296,0.169-0.446c0.168-0.471,0.345-0.937,0.526-1.398       c0.07-0.178,0.145-0.353,0.217-0.528c10.492-25.702,42.653-36.886,84.065-39.189c0.51-0.028,1.027-0.05,1.539-0.076       c0.244-0.013,0.491-0.024,0.735-0.036l18.167,0.654c0,0,0.014,1.111,0.021,1.111c0.023,0,0.046,0,0.069,0c0,0,0.028,0,0.043,0       c0,0,0.02-1.113,0.037-1.111l-0.039,0.17l1.373,39.553v0.037v0.094v0.016v0.006v0.039v0.012v0.008c0,0.006,0,0.012,0,0.018       v0.008c0,1.117,0.02,2.232-0.023,3.347c-0.006,0.155,0.018,0.312,0.01,0.467c-0.006,0.128,0.105,0.255,0.1,0.382       c-0.051,1.051-0.086,2.096-0.086,3.136c0,0.011,0-0.179,0-0.179"/>
				</g>
			</g>
		</g>
	</g>
	<linearGradient id="SVGID_2_" gradientUnits="userSpaceOnUse" x1="2444.7129" y1="476.9102" x2="2098.4058" y2="476.9102">
		<stop offset="0.4439" style="stop-color:#FFFFFF"/>
		<stop offset="0.6154" style="stop-color:#FCFCFC"/>
		<stop offset="0.7288" style="stop-color:#F3F3F4"/>
		<stop offset="0.8252" style="stop-color:#E4E4E6"/>
		<stop offset="0.9117" style="stop-color:#CFCFD1"/>
		<stop offset="0.9917" style="stop-color:#B4B4B7"/>
		<stop offset="0.9949" style="stop-color:#B3B3B6"/>
	</linearGradient>
	<path fill="url(#SVGID_2_)" d="M2206,484.604V377.82c-0.005,0.043-0.014,0.109-0.031,0.227c-0.051,0.332-0.107,0.651-0.158,0.982   c-0.344,2.52-1.248,11.877-3.338,18.774c-19.632,64.793-102.77,138.837-104.066,140.274l7.339,37.922h105.765   C2207.649,556,2206,520.889,2206,484.604z"/>
	<g>
		<path fill="#FFFFFF" d="M921,28H804v548c25.472-32.967,112.667-115.924,117.167-299.5L921,28z"/>
		<linearGradient id="SVGID_3_" gradientUnits="userSpaceOnUse" x1="804" y1="428.3066" x2="921" y2="428.3066">
			<stop offset="0" style="stop-color:#CCCCCC"/>
			<stop offset="0.2387" style="stop-color:#D8D8D8"/>
			<stop offset="0.6744" style="stop-color:#F9F9F9"/>
			<stop offset="0.7398" style="stop-color:#FFFFFF"/>
		</linearGradient>
		<path fill="url(#SVGID_3_)" d="M921,576V280.612C907.048,371.571,875.459,490.757,804,576H921z"/>
	</g>
	<path fill="none" d="M2472.873,483c0.021,0,0.043,0,0.064,0c33.836,0,60.855-23.07,67.777-56.137   C2533.796,459.918,2506.689,483,2472.873,483z"/>
	<path fill="none" d="M2473.628,273c-0.005,0-0.011,0-0.017,0c36.139,0,61.722,25.939,68.641,57.465   c0.77,6.152,1.748,14.506,1.748,20.658c0-6.152-0.966-14.454-1.734-20.605C2535.345,298.988,2509.771,273,2473.628,273z"/>
	<path fill="none" d="M2473.611,272.58c-53.05,0.01-80.701,47.684-80.701,106.891c0,63.798,31.552,103.777,79.963,103.813   c33.816-0.018,60.923-23.082,67.842-56.136c2.307-8.459,3.285-16.918,3.285-26.915v-49.216c0-6.152-0.979-14.611-1.748-20.763   C2535.333,298.729,2509.75,272.585,2473.611,272.58z"/>
	<linearGradient id="SVGID_4_" gradientUnits="userSpaceOnUse" x1="2469.875" y1="274.8857" x2="2276.667" y2="274.8858">
		<stop offset="0" style="stop-color:#FFFFFF"/>
		<stop offset="0.2655" style="stop-color:#FCFCFC"/>
		<stop offset="0.4803" style="stop-color:#F2F2F2"/>
		<stop offset="0.6773" style="stop-color:#E1E1E2"/>
		<stop offset="0.8625" style="stop-color:#C9C9CB"/>
		<stop offset="0.9949" style="stop-color:#B3B3B6"/>
	</linearGradient>
	<path fill="url(#SVGID_4_)" d="M2469.875,193c-4.083-0.333-21.969-1.594-29.25-1.125C2351.654,197.603,2293,242,2276.667,358   C2300.319,319.658,2385.75,221.75,2469.875,193z"/>
	<path fill="#FFFFFF" d="M2660,463.561V30h-116v204h-2.041c-15.893-25-36.168-37.688-72.168-41.021   c-28.124,8.521-130.014,54.416-193.208,164.989c-2.44,14.604-2.335,16.894-2.235,33.352c0,116.888,71.517,193.262,160.721,193.262   c48.445,0,93.816-21.582,117.656-63.582h1.538l5.383,55h103.814C2661.922,550,2660,505.855,2660,463.561z M2544,408.191   c0,9.998-1.021,18.334-3.327,26.793c-6.922,33.067-33.983,56.016-67.819,56.016c-0.021,0-0.043,0-0.064,0c-0.014,0-0.027,0-0.04,0   c-48.447,0-79.976-39.637-79.976-103.462c0-59.213,27.684-106.538,80.744-106.538h0.01h0.017c36.144,0,61.759,25.915,68.68,57.444   c0.769,6.152,1.776,14.38,1.776,20.532V408.191z"/>
	<path fill="none" d="M1175.952,272.339c-33.196,0-62.724,24.704-70.444,59.444c-1.543,6.176-2.508,13.896-2.508,20.844v51.724   c0,9.265,0.965,17.756,2.508,24.705c7.721,31.651,34.837,55.584,68.805,55.584c50.952,0,81.108-42.461,81.108-106.537   C1255.421,317.888,1228.448,272.339,1175.952,272.339z"/>
	<path fill="none" d="M1175.856,272.339c-33.196,0-62.628,24.704-70.349,59.444c-1.543,6.176-2.508,13.896-2.508,20.844v51.724   c0,9.265,0.965,17.756,2.508,24.705c7.721,31.651,34.933,55.584,68.9,55.584c50.952,0,81.013-42.461,81.013-106.537   C1255.421,317.888,1228.353,272.339,1175.856,272.339z"/>
	<path fill="none" d="M1100.607,246c2.716-4,5.583-7.656,8.59-11.21c-3.25,3.633-6.439,7.21-9.567,11.21H1100.607z"/>
	<path fill="none" d="M1185.01,276.741c-33.297,0-62.832,24.779-70.575,59.624c-1.549,6.195-2.435,13.938-2.435,20.907v51.881   c0,9.292,0.886,17.811,2.435,24.779c7.743,31.747,34.9,55.752,68.972,55.752c51.105,0,81.332-42.588,81.332-106.858   C1264.738,322.427,1237.665,276.741,1185.01,276.741z"/>
	<path fill="#FFFFFF" d="M1226.823,184.595c-44.055,0-80.642,13.438-107.788,39.491c-3.34,3.372-6.617,7.046-9.838,10.646   c-3.007,3.555-5.874,7.505-8.59,11.387l-1.258-0.152C1044.521,312.921,1008,409.088,995,451.776V725h117V537h1.771   c17.035,24,52.654,43.32,98.34,43.32c84.402,0,171.902-65.063,171.902-202.896C1384.014,256.629,1309.678,184.595,1226.823,184.595   z M1183.461,489.684c-34.07,0-61.283-24.005-69.026-55.752c-1.549-6.969-2.435-15.487-2.435-24.779v-51.881   c0-6.968,0.886-14.712,2.435-20.907c7.743-34.845,37.224-59.624,70.52-59.624c52.655,0,79.784,45.686,79.784,106.084   C1264.738,447.096,1234.567,489.684,1183.461,489.684z"/>
	<linearGradient id="SVGID_5_" gradientUnits="userSpaceOnUse" x1="1099.3496" y1="322.5171" x2="991.4258" y2="322.5171">
		<stop offset="0" style="stop-color:#FFFFFF"/>
		<stop offset="0.2655" style="stop-color:#FCFCFC"/>
		<stop offset="0.4803" style="stop-color:#F2F2F2"/>
		<stop offset="0.6773" style="stop-color:#E1E1E2"/>
		<stop offset="0.8625" style="stop-color:#C9C9CB"/>
		<stop offset="0.9949" style="stop-color:#B3B3B6"/>
	</linearGradient>
	<path fill="url(#SVGID_5_)" d="M1093.639,193H991.426c1.549,35,3.574,77.546,3.574,127.104v131.931   c34-92.207,71.615-162.757,104.35-205.942L1093.639,193z"/>
</g>
<g id="alpha_text" display="none">
	<g display="inline">
		<rect x="503" y="-66" fill="none" width="2053" height="599"/>
		<path fill="#FFFFFF" d="M763.69,479.983l-6.921-37.681h-2.308c-24.607,29.99-63.058,46.14-107.659,46.14    c-76.131,0-121.502-55.368-121.502-115.35c0-97.663,87.666-144.571,220.702-143.802v-5.383c0-19.994-10.766-48.447-68.44-48.447    c-38.45,0-79.207,13.073-103.814,28.453l-21.532-75.362c26.146-14.611,77.669-33.067,146.109-33.067    c125.347,0,165.335,73.824,165.335,162.258v130.729c0,36.143,1.537,70.748,5.383,91.511H763.69z M749.848,302.345    c-61.52-0.769-109.197,13.842-109.197,59.212c0,29.991,19.994,44.603,46.14,44.603c29.223,0,53.062-19.226,60.751-43.064    c1.538-6.152,2.307-13.073,2.307-19.994V302.345z"/>
		<path fill="#FFFFFF" d="M955.941-66.005h116.888v545.988H955.941V-66.005z"/>
		<path fill="#FFFFFF" d="M1167.412,230.059c0-49.215-1.538-91.51-3.076-126.115h101.508l5.383,52.292h1.538    c27.684-39.988,70.747-60.75,125.347-60.75c82.282,0,156.106,71.517,156.106,191.48c0,136.881-86.897,201.477-170.718,201.477    c-45.371,0-80.745-18.456-97.663-43.063h-1.537v186.866h-116.888V230.059z M1284.3,318.494c0,9.228,0.769,17.687,2.307,24.608    c7.689,31.529,34.604,55.368,68.44,55.368c50.754,0,80.745-42.295,80.745-106.122c0-59.982-26.915-105.353-79.207-105.353    c-33.066,0-62.289,24.608-69.979,59.212c-1.538,6.152-2.307,13.842-2.307,20.763V318.494z"/>
		<path fill="#FFFFFF" d="M1627.268-66.005h116.888v214.55h1.537c12.305-16.149,27.685-28.453,46.141-38.45    c16.918-9.228,39.219-14.611,60.75-14.611c74.593,0,131.499,51.523,131.499,164.565v219.933h-116.888v-206.86    c0-49.216-16.918-83.052-60.751-83.052c-30.76,0-49.984,19.994-58.443,40.757c-3.076,7.69-3.845,17.687-3.845,26.146v223.009    h-116.888V-66.005z"/>
		<path fill="#FFFFFF" d="M2291.682,479.983l-6.921-37.681h-2.308c-24.607,29.99-63.058,46.14-107.659,46.14    c-76.131,0-121.502-55.368-121.502-115.35c0-97.663,87.666-144.571,220.702-143.802v-5.383c0-19.994-10.766-48.447-68.44-48.447    c-38.45,0-79.207,13.073-103.814,28.453l-21.532-75.362c26.146-14.611,77.669-33.067,146.109-33.067    c125.347,0,165.334,73.824,165.334,162.258v130.729c0,36.143,1.538,70.748,5.384,91.511H2291.682z M2277.839,302.345    c-61.52-0.769-109.197,13.842-109.197,59.212c0,29.991,19.994,44.603,46.14,44.603c29.223,0,53.062-19.226,60.751-43.064    c1.538-6.152,2.307-13.073,2.307-19.994V302.345z"/>
	</g>
</g>
<g id="Layer_13" display="none">
	<path display="inline" fill="#FCD535" d="M3041.289,407.839c0,0.008,0.002,0.016,0.002,0.023c0-0.015,0.001-0.023,0.001-0.023   H3041.289z"/>
	<polygon display="inline" fill="#E6E6E6" points="3177,328 3179.478,328 3177,327.837  "/>
	<path display="inline" fill="#FCD535" d="M3041.257,407.716h0.012c-0.019-0.114-0.035-0.228-0.053-0.342   C3041.23,407.489,3041.242,407.6,3041.257,407.716z"/>
	<path display="inline" fill="#333333" d="M3038.531,329.717c3.139-31.643,23.225-76.291,72.555-76.291   c53.424,0,66.299,48.338,66.581,77.413l106.667,0.667c-10.516-80.768-59.54-156.116-166.301-156.116   c-131.241,0-190.685,105.804-190.685,201.532c0,118.117,73.34,192.249,201.492,192.249c50.952,0,98.044-7.71,136.645-23.15   l-15.439-79.511c-31.652,10.035-64.076,15.282-104.221,15.282c-54.804,0-102.661-22.945-106.534-71.93   c0,0.042-0.001,0.125-0.002,0.121c-0.012-0.091-0.021-0.178-0.032-0.268"/>
	<linearGradient id="SVGID_6_" gradientUnits="userSpaceOnUse" x1="3036.5479" y1="369.9092" x2="3286.3301" y2="369.9092">
		<stop offset="0" style="stop-color:#000000"/>
		<stop offset="0.3542" style="stop-color:#1A1A1A"/>
		<stop offset="0.7398" style="stop-color:#333333"/>
	</linearGradient>
	<path display="inline" fill="url(#SVGID_6_)" d="M3286.33,363.758c0-11.314-0.687-22.758-2.098-33.758h-106.755H3175h-136   l-0.484-0.065c-1.25,11.6-2.614,32.882-1.633,55.126c0.482,7.408,1.228,15.503,2.333,24.333c0.018,0.113,0.034,0.218,0.053,0.331   l243.201,0.158C3284.014,401.884,3286.33,383.83,3286.33,363.758z"/>
	<linearGradient id="SVGID_7_" gradientUnits="userSpaceOnUse" x1="3347.5645" y1="409.3555" x2="3575.667" y2="409.3555">
		<stop offset="0.4337" style="stop-color:#FCD535"/>
		<stop offset="0.5768" style="stop-color:#F8CE34"/>
		<stop offset="0.7792" style="stop-color:#EBBC33"/>
		<stop offset="1" style="stop-color:#D8A030"/>
	</linearGradient>
	<path display="inline" fill="url(#SVGID_7_)" d="M3347.564,547h140.467l45.208-98.783c16.88-37.783,31.153-67.282,42.428-99.289   l-70.683-77.216L3347.564,547z"/>
	<linearGradient id="SVGID_8_" gradientUnits="userSpaceOnUse" x1="3584.0586" y1="136.7896" x2="3808.5234" y2="136.7896">
		<stop offset="0" style="stop-color:#D8A030"/>
		<stop offset="0.5714" style="stop-color:#FCD535"/>
	</linearGradient>
	<path display="inline" fill="url(#SVGID_8_)" d="M3808.523,4h-140.466l-46.017,99.007c-13.643,31.296-25.171,55.491-37.982,90.164   l71.082,76.408L3808.523,4z"/>
	<linearGradient id="SVGID_9_" gradientUnits="userSpaceOnUse" x1="3353.2148" y1="275" x2="3816.5967" y2="275">
		<stop offset="0" style="stop-color:#D8A030"/>
		<stop offset="0.5714" style="stop-color:#FCD535"/>
	</linearGradient>
	<path display="inline" fill="url(#SVGID_9_)" d="M3655.141,269.348L3655.141,269.348L3584.059,193h-0.769   c-12.915-30-25.024-56.961-41.171-90.061L3494.491,4h-141.276l151.77,268.79l0.066,0.085l71.696,78.238l0.087,0.08   c15.338,32.178,28.254,60.004,48.437,97.947L3674.514,546h142.083L3655.141,269.348z"/>
	<g display="inline">
		<path fill="#333333" d="M1771.531,225H1770V9h-117v443.995c3.971-13.024,49.75-138.826,116.114-225.296    C1770.205,226.255,1771.222,225,1771.531,225z"/>
		<path fill="#333333" d="M1878.938,171.31c-21.617,0-44.029,5.535-61.014,14.799c-17.507,9.482-32.275,21.343-44.271,36.118    c-0.544,0.69-0.888,1.175-1.646,2.072c-0.143,0.182-0.336,0.357-0.477,0.54l0,0c-0.811,0.918-1.613,1.85-2.417,2.779    c-13.451,17.803-83.864,109.971-116.114,225.087V557h117V333.431c0-8.492,0.789-18.528,3.877-26.248    c8.492-20.844,28.023-40.916,58.903-40.916c44.004,0,61.22,33.968,61.22,83.376V557h117V336.519    C2011,223.034,1953.822,171.31,1878.938,171.31z"/>
	</g>
	<g display="inline">
		<path fill="#333333" d="M2294,294.839C2294,294.839,2294.011,294.839,2294,294.839"/>
		<g>
			<path fill="#333333" d="M2294.031,295c-0.011,0-0.021,0-0.031,0l0.259,6.207L2294.031,295z"/>
			<g>
				<path fill="#333333" d="M2294.031,295c-0.011,0-0.021,0-0.031,0l0.259,6.207L2294.031,295z"/>
				<g>
					<path fill="#333333" d="M2293.906,295c-0.011,0-0.021,0-0.031,0l0.259,6.207L2293.906,295z"/>
					<path fill="#333333" d="M2246.121,170.077c-68.707,0-120.381,18.528-146.629,33.196l21.642,75.657       c24.705-15.44,65.59-28.564,104.19-28.564c57.898,0,68.676,28.564,68.676,48.636v5.401       c-133-0.688-221.525,46.407-221.525,144.368c0,60.217,45.574,115.979,122.002,115.979c44.775,0,83.387-16.143,108.092-46.143       c58.518-54,96.606-101.288,105.997-141.197c1.402-5.96,2.468-8.554,3.341-18.774c0.061-0.709,0.096-1.092,0.096-1.092       s-0.002-0.154-0.002-0.173v-24.401C2412,244.189,2371.959,170.077,2246.121,170.077z M2294.131,307l0.228,6.207L2294.1,307       C2294.11,307,2294.12,307,2294.131,307z M2295.822,438.723c-7.72,23.932-31.747,43.238-61.083,43.238       c-0.752,0-1.522-0.019-2.265-0.044c-0.086-0.002-0.186,0-0.27-0.002c-0.626-0.023-1.251-0.059-1.868-0.1       c-0.27-0.018-0.544-0.031-0.812-0.053c-0.586-0.045-1.168-0.099-1.746-0.161c-0.281-0.029-0.562-0.062-0.841-0.095       c-0.578-0.07-1.157-0.141-1.728-0.227c-0.188-0.027-0.372-0.063-0.559-0.092c-0.596-0.096-1.195-0.184-1.781-0.295       c-0.346-0.066-0.679-0.152-1.02-0.225c-0.033-0.008-0.066-0.016-0.1-0.021c-7.11-1.518-13.441-4.371-18.638-8.57       c-0.018-0.016-0.035-0.027-0.053-0.043c-0.249-0.201-0.51-0.389-0.754-0.598c-1.188-0.992-2.307-2.066-3.366-3.205       c0.057,0.08,0.11,0.16,0.188,0.24c-0.149-0.16-0.289-0.33-0.436-0.494c-0.021-0.021-0.041-0.045-0.061-0.068       c-0.408-0.455-0.805-0.922-1.191-1.4c-0.241-0.293-0.479-0.588-0.711-0.891c-0.055-0.072-0.106-0.146-0.161-0.219       c-0.356-0.471-0.717-0.938-1.054-1.43c2.414,3.615,5.367,6.686,8.775,9.207c5.229,3.848,11.492,6.432,18.443,7.768       c-6.978-1.336-13.236-3.918-18.443-7.768c-7.161-5.271-12.366-12.924-14.744-22.975c-0.004-0.02-0.01-0.039-0.015-0.061       c-0.184-0.779-0.354-1.57-0.504-2.379c-0.005-0.025-0.009-0.053-0.013-0.078c-0.015-0.076-0.024-0.156-0.038-0.232       c-0.034-0.191-0.061-0.387-0.093-0.58c-0.021-0.119-0.039-0.242-0.059-0.363c-0.051-0.32-0.107-0.637-0.154-0.963       c-0.002-0.021-0.007-0.041-0.01-0.063c-0.026-0.188-0.05-0.377-0.074-0.564c-0.012-0.086-0.019-0.176-0.029-0.264       c-0.032-0.254-0.058-0.514-0.086-0.771c-0.028-0.252-0.061-0.5-0.085-0.754c-0.001-0.014-0.003-0.025-0.004-0.037       c-0.017-0.166-0.031-0.332-0.046-0.5c-0.009-0.088-0.018-0.178-0.025-0.268c-0.002-0.018-0.002-0.035-0.004-0.053       c-0.032-0.395-0.053-0.799-0.078-1.199c-0.01-0.178-0.025-0.354-0.034-0.531c-0.003-0.053-0.006-0.104-0.009-0.156       c-0.011-0.191-0.023-0.383-0.032-0.576c-0.027-0.67-0.038-0.155-0.044-0.841c-0.001-0.057-0.004,1.031-0.004,1.031H2188       c0,0,0-2.38,0-2.394c0,0.014,0,0.027,0,0.041l0,0v-0.455c0,0,0,0,0-0.002s0-0.002,0-0.002c0-0.002,0-0.002,0-0.002       c0-0.08,0.174-0.156,0.174-0.234c0-0.09,0.035-0.18,0.037-0.271c0.082-5.629,0.9-10.782,2.379-15.48       c0.154-0.488,0.319-0.974,0.487-1.452c0.053-0.15,0.116-0.296,0.169-0.445c0.168-0.471,0.345-0.938,0.526-1.399       c0.07-0.177,0.145-0.353,0.217-0.528c10.492-25.702,42.653-36.886,84.065-39.189c0.51-0.029,1.027-0.05,1.539-0.076       c0.244-0.013,0.491-0.024,0.735-0.036l18.167,0.735c0.007-0.002,0.014,1.191,0.021,1.191c0.023,0,0.046,0,0.069,0       c0,0,0.028,0,0.043,0c0,0,0.02-1.193,0.037-1.193l-0.039,0.131l1.373,39.514v0.037v0.094v0.014v0.008v0.038v0.013v0.008       c0,0.006,0,0.012,0,0.018v0.008c0,1.117,0.02,2.231-0.023,3.346c-0.006,0.155,0.018,0.312,0.01,0.467       c-0.006,0.128,0.105,0.255,0.1,0.382c-0.051,1.051-0.086,2.096-0.086,3.136c0,0.011,0-0.018,0-0.018"/>
				</g>
			</g>
		</g>
	</g>
	<path display="inline" fill="#333333" d="M2412,463.443V356.658c-0.005,0.045-0.014,0.11-0.031,0.228   c-0.051,0.333-0.107,0.651-0.158,0.982c-0.344,2.52-1.248,11.877-3.338,18.774c-19.632,64.793-102.77,138.918-104.066,140.355   l7.339,38.002h105.765C2413.649,535,2412,499.728,2412,463.443z"/>
	<path display="inline" fill="#333333" d="M2084.811,73.868c0.051-0.331,0.107-0.65,0.158-0.982   c0.018-0.117,0.026-0.183,0.031-0.227v-0.055c-0.012,0.018-0.047,0.173-0.047,0.173S2084.906,73.164,2084.811,73.868z"/>
	<g display="inline">
		<path fill="#333333" d="M1095,7H978v547.839c25.472-32.967,112.667-115.843,117.167-299.419L1095,7z"/>
		<path fill="#333333" d="M1095,555V259.451C1081.048,350.41,1049.459,470,978,555H1095z"/>
	</g>
	<path display="inline" fill="#333333" d="M2675.875,171.839c-4.083-0.333-21.969-1.594-29.25-1.125   c-88.971,5.728-147.958,42.458-160.625,177.125C2509.652,309.497,2599.333,205.839,2675.875,171.839z"/>
	<path display="inline" fill="#333333" d="M2866,442.399V9h-116v204h-2.041c-15.893-25-36.168-37.768-72.168-41.101   c-28.124,8.521-126.597,65.407-189.791,175.98c-2.44,14.604-2.335,16.874-2.235,33.332c0,116.888,68.1,182.301,157.304,182.301   c48.446,0,93.816-21.512,117.656-63.512h1.538l5.383,55h103.814C2867.922,529,2866,484.694,2866,442.399z M2750,387.031   c0,9.996-1.021,18.414-3.327,26.873c-6.922,33.066-33.983,56.096-67.819,56.096c-0.021,0-0.043,0-0.064,0c-0.014,0-0.027,0-0.04,0   c-48.447,0-79.976-39.637-79.976-103.462c0-59.213,27.684-106.538,80.744-106.538h0.01h0.017c36.144,0,61.759,25.834,68.68,57.364   c0.769,6.152,1.776,14.299,1.776,20.451V387.031z"/>
	<path display="inline" fill="#333333" d="M1431.823,163.434c-44.055,0-80.642,13.438-107.788,39.491   c-3.34,3.372-6.617,7.046-9.838,10.646c-3.007,3.555-5.874,7.505-8.59,11.387l-1.258-0.152   C1249.521,291.76,1213,387.927,1200,430.615V684h118l-1-168h1.771c17.035,24,52.654,43.24,98.34,43.24   c84.402,0,171.902-65.104,171.902-202.937C1589.014,235.508,1514.678,163.434,1431.823,163.434z M1388.461,468.522   c-34.07,0-61.283-24.005-69.026-55.752c-1.549-6.969-2.435-15.487-2.435-24.779V336.11c0-6.968,0.886-14.712,2.435-20.907   c7.743-34.845,37.224-59.624,70.52-59.624c52.655,0,79.784,45.686,79.784,106.084   C1469.738,425.935,1439.567,468.522,1388.461,468.522z"/>
	<path display="inline" fill="#333333" d="M1298.639,172h-102.213c1.549,35,3.574,77.385,3.574,126.942v131.931   c34-92.207,71.615-162.676,104.35-205.861L1298.639,172z"/>
	<path display="inline" fill="none" d="M611.25,325.761L610.98,327h117.733l-34.188-116.291C684.759,178.149,674.99,138,666.851,105   h-1.628c-8.14,33-16.28,73.963-25.234,105.709L607.429,327h1.767l0.342-1.629L611.25,325.761z"/>
	<linearGradient id="SVGID_10_" gradientUnits="userSpaceOnUse" x1="369.333" y1="286.5" x2="922.4453" y2="286.5">
		<stop offset="0" style="stop-color:#D8A030"/>
		<stop offset="0.5714" style="stop-color:#FCD535"/>
	</linearGradient>
	<path display="inline" fill="url(#SVGID_10_)" d="M752.32,12h-162.8L421.838,561h128.611l39.071-141.08l0,0l17.908-93.041l0,0   l32.56-116.23C648.942,178.903,657.083,138,665.223,105h1.628c8.14,33,17.908,73.149,27.676,105.709L728.714,327H398.333l-29,93   h377.289l42.328,141h133.495L752.32,12z"/>
	<g display="inline">
		
			<linearGradient id="SVGID_11_" gradientUnits="userSpaceOnUse" x1="2480.8594" y1="78.2803" x2="2595.0625" y2="78.2803" gradientTransform="matrix(0.7937 -0.6084 0.6084 0.7937 1115.9771 1409.1174)">
			<stop offset="0" style="stop-color:#D8A030"/>
			<stop offset="0.5714" style="stop-color:#FCD535"/>
		</linearGradient>
		<polygon fill="url(#SVGID_11_)" points="3233.203,-94.671 3142.562,-25.19 3122.76,-51.023 3213.402,-120.504   "/>
		
			<linearGradient id="SVGID_12_" gradientUnits="userSpaceOnUse" x1="471.3613" y1="-1369.3535" x2="580.9922" y2="-1369.3535" gradientTransform="matrix(-0.6084 -0.7937 0.7937 -0.6084 4520.6436 -438.9156)">
			<stop offset="0" style="stop-color:#D8A030"/>
			<stop offset="0.5714" style="stop-color:#FCD535"/>
		</linearGradient>
		<polygon fill="url(#SVGID_12_)" points="3175.045,-1.409 3085.271,-1.922 3108.578,-88.601 3122.73,-51.128 3143.356,-24.703       "/>
		<g>
			
				<linearGradient id="SVGID_13_" gradientUnits="userSpaceOnUse" x1="3100.334" y1="158.1865" x2="3214.5371" y2="158.1865" gradientTransform="matrix(-0.7937 0.6084 0.6084 0.7937 5594.2847 -2023.6263)">
				<stop offset="0" style="stop-color:#D8A030"/>
				<stop offset="0.5714" style="stop-color:#FCD535"/>
			</linearGradient>
			<polygon fill="url(#SVGID_13_)" points="3149.049,70.568 3239.691,1.087 3219.89,-24.747 3129.246,44.734    "/>
			
				<linearGradient id="SVGID_14_" gradientUnits="userSpaceOnUse" x1="391.249" y1="-749.7109" x2="500.8789" y2="-749.7109" gradientTransform="matrix(-0.6084 -0.7937 -0.7937 0.6084 2925.187 784.0883)">
				<stop offset="0" style="stop-color:#D8A030"/>
				<stop offset="0.5714" style="stop-color:#FCD535"/>
			</linearGradient>
			<polygon fill="url(#SVGID_14_)" points="3254.164,38.92 3276.99,-47.905 3187.232,-47.916 3219.742,-24.513 3239.902,2.269         "/>
		</g>
	</g>
</g>
<g id="ad" display="none">
	<g display="inline">
		<path fill="#FFFFFF" d="M337,243c-7-63.5-234-486-234-486L-27.334,18.998l110.008,0.168L101-17l40.333,77.998L-166,60    c0,0-7,76,68,99l-164,328h113L15,165l103-1c0,0,120.636-3.709,117.667,117.667C232.667,404.334,66,382,66,382l88-176H39.667    L-98.666,486.334L124,486C124,486,363.969,487.643,337,243z"/>
		<path fill="#FFFFFF" d="M370.167,300.833C377,372.667,318.75,422.25,318.75,422.25L348,479h111.5    C459.5,479,369.09,289.508,370.167,300.833z"/>
	</g>
</g>
<g id="aex_purple" display="none">
	<linearGradient id="SVGID_15_" gradientUnits="userSpaceOnUse" x1="-260" y1="325.5" x2="21.1395" y2="325.5">
		<stop offset="0.6735" style="stop-color:#6966FF"/>
		<stop offset="0.7349" style="stop-color:#6562F5"/>
		<stop offset="0.8406" style="stop-color:#5A58D9"/>
		<stop offset="0.977" style="stop-color:#4947AC"/>
		<stop offset="1" style="stop-color:#4644A4"/>
	</linearGradient>
	<polygon display="inline" fill="url(#SVGID_15_)" points="-93.667,163 -97.833,163.667 -260,488 -147,488 20.5,163  "/>
	<linearGradient id="SVGID_16_" gradientUnits="userSpaceOnUse" x1="322.25" y1="380.1689" x2="470.5" y2="380.1689">
		<stop offset="0.6735" style="stop-color:#6966FF"/>
		<stop offset="0.7349" style="stop-color:#6562F5"/>
		<stop offset="0.8406" style="stop-color:#5A58D9"/>
		<stop offset="0.977" style="stop-color:#4947AC"/>
		<stop offset="1" style="stop-color:#4644A4"/>
	</linearGradient>
	<path display="inline" fill="url(#SVGID_16_)" d="M362.25,272.75c6.5,96.25-40,143.25-40,143.25L359,488h111.5   C470.5,488,361.483,261.401,362.25,272.75z"/>
	<linearGradient id="SVGID_17_" gradientUnits="userSpaceOnUse" x1="-96.666" y1="348.2168" x2="155.2871" y2="348.2168">
		<stop offset="0.6735" style="stop-color:#6966FF"/>
		<stop offset="0.7349" style="stop-color:#6562F5"/>
		<stop offset="0.8406" style="stop-color:#5A58D9"/>
		<stop offset="0.977" style="stop-color:#4947AC"/>
		<stop offset="1" style="stop-color:#4644A4"/>
	</linearGradient>
	<polygon display="inline" fill="url(#SVGID_17_)" points="155.287,208 41.667,208 -96.666,488.434 14.617,488.217  "/>
	<linearGradient id="SVGID_18_" gradientUnits="userSpaceOnUse" x1="-25.334" y1="-53.8428" x2="162" y2="-53.8428">
		<stop offset="0.6735" style="stop-color:#6966FF"/>
		<stop offset="0.7349" style="stop-color:#6562F5"/>
		<stop offset="0.8406" style="stop-color:#5A58D9"/>
		<stop offset="0.977" style="stop-color:#4947AC"/>
		<stop offset="1" style="stop-color:#4644A4"/>
	</linearGradient>
	<path display="inline" fill="url(#SVGID_18_)" d="M162-131H51.288L-25.334,23.098l110.008,0.217l17.989-35.476l-0.116-0.229   l59.438-118.583c0.004,0.007-0.002,0.029,0.01,0.049"/>
	<linearGradient id="SVGID_19_" gradientUnits="userSpaceOnUse" x1="-83.0527" y1="392.6826" x2="252.8569" y2="56.7729">
		<stop offset="0.6735" style="stop-color:#6966FF"/>
		<stop offset="0.7349" style="stop-color:#6562F5"/>
		<stop offset="0.8406" style="stop-color:#5A58D9"/>
		<stop offset="0.977" style="stop-color:#4947AC"/>
		<stop offset="1" style="stop-color:#4644A4"/>
	</linearGradient>
	<path display="inline" fill="url(#SVGID_19_)" d="M338,246.198c-3.75-29.198-26.502-77.805-67.188-160.906   c0.087,0.179-2.947-6.292-9.729-20.292H144.01L144,64.979L-159.666,64c0,0-12.834,81,62.166,104h4.596H20.364H115h0.313h5.656   c0,0,44.128-1.756,70.281,13.25C234.5,207.25,241,242.5,239,285C233.754,396.488,90.338,389.633,65,387.187L13.617,489.353   L125,489.192C125,489.192,369.353,490.317,338,246.198z"/>
	<linearGradient id="SVGID_20_" gradientUnits="userSpaceOnUse" x1="181.584" y1="-463.9268" x2="181.584" y2="169.1135">
		<stop offset="0.6735" style="stop-color:#6966FF"/>
		<stop offset="0.7349" style="stop-color:#6562F5"/>
		<stop offset="0.8406" style="stop-color:#5A58D9"/>
		<stop offset="0.977" style="stop-color:#4947AC"/>
		<stop offset="1" style="stop-color:#4644A4"/>
	</linearGradient>
	<path display="inline" fill="url(#SVGID_20_)" d="M161.953-131.016L102.667-12.833l-0.584,0.5l0.604,0.124L142.417,65h118.667   C232.11,7.617,163.398-128.178,161.953-131.016z"/>
	<path display="inline" fill="none" d="M3108.086,170.595c-49.33,0-69.416,44.644-72.555,76.287L3172,247.008l-0.016-0.008h2.471   C3174.189,217,3161.51,170.595,3108.086,170.595z"/>
	<path display="inline" fill="#FFFFFF" d="M3035.531,246.878c3.139-31.643,23.225-76.291,72.555-76.291   c53.424,0,66.299,48.337,66.581,77.413l106.667,0.667c-10.516-80.768-59.54-156.116-166.301-156.116   c-131.241,0-190.685,105.804-190.685,201.532c0,118.117,73.34,192.249,201.492,192.249c50.952,0,98.044-7.71,136.645-23.15   l-15.439-79.511c-31.652,10.035-64.076,15.282-104.221,15.282c-54.804,0-102.661-22.945-106.534-71.93   c0,0.042-0.001,0.125-0.002,0.121c-0.012-0.09-0.021-0.177-0.032-0.267"/>
	<path display="inline" fill="#FCD535" d="M3036.289,327c0,0.008,0.002,0.016,0.002,0.023c0-0.014,0.001-0.023,0.001-0.023H3036.289   z"/>
	<polygon display="inline" fill="#E6E6E6" points="3172,247 3174.478,247 3172,246.998  "/>
	<path display="inline" fill="none" d="M3033.883,302.183c0.359,8.142,1.084,16.402,2.333,24.353   C3035.11,317.705,3034.365,309.591,3033.883,302.183z"/>
	<linearGradient id="SVGID_21_" gradientUnits="userSpaceOnUse" x1="3033.5479" y1="287" x2="3283.3301" y2="287">
		<stop offset="0" style="stop-color:#B3B3B6"/>
		<stop offset="0.469" style="stop-color:#E6E6E7"/>
		<stop offset="0.7398" style="stop-color:#FFFFFF"/>
	</linearGradient>
	<path display="inline" fill="url(#SVGID_21_)" d="M3283.33,280.839c0-11.316-0.687-22.652-2.098-33.839h-106.755H3172h-136   l-0.484,0.016c-1.25,11.6-2.614,32.923-1.633,55.167c0.482,7.408,1.228,15.522,2.333,24.353c0.018,0.114,0.034,0.228,0.053,0.342   L3279.47,327C3281.014,319,3283.33,300.912,3283.33,280.839z"/>
	<path display="inline" fill="#FCD535" d="M3036.257,326.877h0.012c-0.019-0.114-0.035-0.228-0.053-0.342   C3036.23,326.65,3036.242,326.761,3036.257,326.877z"/>
	<path display="inline" fill="none" d="M3559.926,273.062l1.773-1.807l-0.807-0.881   C3560.574,271.272,3560.248,272.167,3559.926,273.062z"/>
	<linearGradient id="SVGID_22_" gradientUnits="userSpaceOnUse" x1="3918.9727" y1="795.8398" x2="3589.334" y2="224.889">
		<stop offset="0.6735" style="stop-color:#6966FF"/>
		<stop offset="0.7349" style="stop-color:#6562F5"/>
		<stop offset="0.8406" style="stop-color:#5A58D9"/>
		<stop offset="0.977" style="stop-color:#4947AC"/>
		<stop offset="1" style="stop-color:#4644A4"/>
	</linearGradient>
	<path display="inline" fill="url(#SVGID_22_)" d="M3645.128,192.676l-83.919,84.032c15.904,33.389,31.338,66.348,52.357,105.866   L3665.6,487h150.128L3645.128,192.676z"/>
	<linearGradient id="SVGID_23_" gradientUnits="userSpaceOnUse" x1="3320.1348" y1="199" x2="3807.1973" y2="199">
		<stop offset="0.4898" style="stop-color:#6966FF"/>
		<stop offset="0.5858" style="stop-color:#6562F5"/>
		<stop offset="0.7509" style="stop-color:#5A58D9"/>
		<stop offset="0.964" style="stop-color:#4947AC"/>
		<stop offset="1" style="stop-color:#4644A4"/>
	</linearGradient>
	<path display="inline" fill="url(#SVGID_23_)" d="M3807.197-88h-148.421l-48.621,104.691   c-14.414,33.068-26.595,58.672-40.132,95.309h-0.813c-0.087-0.204-0.173-0.404-0.26-0.607l-82.395,83.789l0.014,0.015l-0.385,0.388   L3320.135,486h148.423l47.768-104.426c17.118-38.313,31.688-68.592,43.366-100.861l0.234-0.651c0.24-0.666,0.652-1.778,0.979-2.674   l0.097-0.096l84.126-84.615l0,0L3807.197-88z"/>
	<linearGradient id="SVGID_24_" gradientUnits="userSpaceOnUse" x1="3327.2939" y1="53.9414" x2="3569.2109" y2="53.9414">
		<stop offset="0" style="stop-color:#6966FF"/>
		<stop offset="0.1766" style="stop-color:#6663F8"/>
		<stop offset="0.432" style="stop-color:#5F5CE5"/>
		<stop offset="0.7337" style="stop-color:#5351C6"/>
		<stop offset="1" style="stop-color:#4644A4"/>
	</linearGradient>
	<path display="inline" fill="url(#SVGID_24_)" d="M3525.708,16.691L3475.381-88l-148.087,1.709l159.282,282.173L3569.211,112   C3555.904,80.874,3542.387,50.88,3525.708,16.691z"/>
</g>
<g id="aex_yellow" display="none">
	<linearGradient id="SVGID_25_" gradientUnits="userSpaceOnUse" x1="162.4375" y1="-135.9238" x2="162.4375" y2="-135.9238">
		<stop offset="0.5765" style="stop-color:#D8A030"/>
		<stop offset="0.7908" style="stop-color:#FCD535"/>
	</linearGradient>
	<path display="inline" fill="url(#SVGID_25_)" d="M162.438-135.924"/>
	<linearGradient id="SVGID_26_" gradientUnits="userSpaceOnUse" x1="162.3574" y1="-135.9482" x2="162.4374" y2="-135.9482">
		<stop offset="0" style="stop-color:#D8A030"/>
		<stop offset="0.5714" style="stop-color:#FCD535"/>
	</linearGradient>
	<path display="inline" fill="url(#SVGID_26_)" d="M162.438-135.924c-0.01-0.021-0.021-0.042-0.025-0.049"/>
	<path display="inline" fill="none" d="M3108.086,167.595c-49.33,0-69.416,44.644-72.555,76.287L3172,244.008l-0.016-0.008h2.471   C3174.189,214,3161.51,167.595,3108.086,167.595z"/>
	<path display="inline" fill="#FFFFFF" d="M3035.531,243.878c3.139-31.643,23.225-76.291,72.555-76.291   c53.424,0,66.299,48.337,66.581,77.413l106.667,0.667c-10.516-80.768-59.54-156.116-166.301-156.116   c-131.241,0-190.685,105.804-190.685,201.532c0,118.117,73.34,192.249,201.492,192.249c50.952,0,98.044-7.71,136.645-23.15   l-15.439-79.511c-31.652,10.035-64.076,15.282-104.221,15.282c-54.804,0-102.661-22.945-106.534-71.93   c0,0.042-0.001,0.125-0.002,0.121c-0.012-0.09-0.021-0.177-0.032-0.267"/>
	<path display="inline" fill="#FCD535" d="M3036.289,324c0,0.008,0.002,0.016,0.002,0.023c0-0.014,0.001-0.023,0.001-0.023H3036.289   z"/>
	<polygon display="inline" fill="#E6E6E6" points="3172,244 3174.478,244 3172,243.998  "/>
	<path display="inline" fill="none" d="M3033.883,299.183c0.359,8.142,1.084,16.402,2.333,24.353   C3035.11,314.705,3034.365,306.591,3033.883,299.183z"/>
	<linearGradient id="SVGID_27_" gradientUnits="userSpaceOnUse" x1="3033.5479" y1="284" x2="3283.3301" y2="284">
		<stop offset="0" style="stop-color:#B3B3B6"/>
		<stop offset="0.469" style="stop-color:#E6E6E7"/>
		<stop offset="0.7398" style="stop-color:#FFFFFF"/>
	</linearGradient>
	<path display="inline" fill="url(#SVGID_27_)" d="M3283.33,277.839c0-11.316-0.687-22.652-2.098-33.839h-106.755H3172h-136   l-0.484,0.016c-1.25,11.6-2.614,32.923-1.633,55.167c0.482,7.408,1.228,15.522,2.333,24.353c0.018,0.114,0.034,0.228,0.053,0.342   L3279.47,324C3281.014,316,3283.33,297.912,3283.33,277.839z"/>
	<path display="inline" fill="#FCD535" d="M3036.257,323.877h0.012c-0.019-0.114-0.035-0.228-0.053-0.342   C3036.23,323.65,3036.242,323.761,3036.257,323.877z"/>
	<path display="inline" fill="#FFFFFF" d="M3033.531,243.878c3.139-31.643,23.225-76.291,72.555-76.291   c53.424,0,66.299,48.337,66.581,77.413l106.667,0.667c-10.516-80.768-59.54-156.116-166.301-156.116   c-131.241,0-190.685,105.804-190.685,201.532c0,118.117,73.34,192.249,201.492,192.249c50.952,0,98.044-7.71,136.645-23.15   l-15.439-79.511c-31.652,10.035-64.076,15.282-104.221,15.282c-54.804,0-102.661-22.945-106.534-71.93   c0,0.042-0.001,0.125-0.002,0.121c-0.012-0.091-0.021-0.178-0.032-0.268"/>
	<linearGradient id="SVGID_28_" gradientUnits="userSpaceOnUse" x1="3031.5479" y1="284" x2="3281.3301" y2="284">
		<stop offset="0" style="stop-color:#B3B3B6"/>
		<stop offset="0.469" style="stop-color:#E6E6E7"/>
		<stop offset="0.7398" style="stop-color:#FFFFFF"/>
	</linearGradient>
	<path display="inline" fill="url(#SVGID_28_)" d="M3281.33,277.839c0-11.316-0.687-22.652-2.098-33.839h-106.755H3170h-136   l-0.484,0.016c-1.25,11.6-2.614,32.923-1.633,55.167c0.482,7.408,1.228,15.522,2.333,24.353c0.018,0.113,0.034,0.229,0.053,0.342   L3277.47,324C3279.014,316,3281.33,297.912,3281.33,277.839z"/>
	
		<linearGradient id="SVGID_29_" gradientUnits="userSpaceOnUse" x1="-221.5723" y1="-2079.5" x2="58.4299" y2="-2079.5" gradientTransform="matrix(1 0 0 -1 0 -2036)">
		<stop offset="0.5714" style="stop-color:#FCD535"/>
		<stop offset="0.672" style="stop-color:#F8CE34"/>
		<stop offset="0.8142" style="stop-color:#EBBC33"/>
		<stop offset="0.9694" style="stop-color:#D8A030"/>
	</linearGradient>
	<polygon display="inline" fill="url(#SVGID_29_)" points="-55.477,205 -60.072,204.95 -221.572,-118 -108.572,-118 57.793,205  "/>
	
		<linearGradient id="SVGID_30_" gradientUnits="userSpaceOnUse" x1="434.8027" y1="-2134.6626" x2="434.8027" y2="-1919" gradientTransform="matrix(1 0 0 -1 0 -2036)">
		<stop offset="0.1633" style="stop-color:#D8A030"/>
		<stop offset="0.4439" style="stop-color:#FCD535"/>
	</linearGradient>
	<path display="inline" fill="url(#SVGID_30_)" d="M400.678,98.25c6.5-96.25-40-143.25-40-143.25l36.75-72h111.5   C508.928-117,399.912,109.6,400.678,98.25z"/>
	
		<linearGradient id="SVGID_31_" gradientUnits="userSpaceOnUse" x1="13.0938" y1="-2462.8428" x2="200.4688" y2="-2462.8428" gradientTransform="matrix(1 0 0 -1 0 -2036)">
		<stop offset="0" style="stop-color:#D8A030"/>
		<stop offset="0.5714" style="stop-color:#FCD535"/>
	</linearGradient>
	<path display="inline" fill="url(#SVGID_31_)" d="M200.412,503.973c0.004-0.006,0.016-0.028,0.025-0.049l0.031,0.061   c-0.004,0.006-0.006,0.01-0.008,0.016H89.717L13.094,349.902l110.008-0.217l17.99,35.476l-0.117,0.229L200.412,503.973z"/>
	
		<linearGradient id="SVGID_32_" gradientUnits="userSpaceOnUse" x1="-221.5723" y1="-2241.6172" x2="58.4273" y2="-2241.6172" gradientTransform="matrix(1 0 0 -1 0 -2036)">
		<stop offset="0" style="stop-color:#D8A030"/>
		<stop offset="0.5714" style="stop-color:#FCD535"/>
	</linearGradient>
	<polygon display="inline" fill="url(#SVGID_32_)" points="58.428,206.234 -55.477,205 57.793,205  "/>
	
		<linearGradient id="SVGID_33_" gradientUnits="userSpaceOnUse" x1="-123.3535" y1="-2241.6172" x2="404.5565" y2="-2241.6172" gradientTransform="matrix(1 0 0 -1 0 -2036)">
		<stop offset="0" style="stop-color:#D8A030"/>
		<stop offset="0.5714" style="stop-color:#FCD535"/>
	</linearGradient>
	<polygon display="inline" fill="url(#SVGID_33_)" points="58.428,206.234 -55.477,205 57.793,205  "/>
	
		<linearGradient id="SVGID_34_" gradientUnits="userSpaceOnUse" x1="-44.625" y1="-2016.3179" x2="291.2845" y2="-2352.2275" gradientTransform="matrix(1 0 0 -1 0 -2036)">
		<stop offset="0" style="stop-color:#D8A030"/>
		<stop offset="0.5714" style="stop-color:#FCD535"/>
	</linearGradient>
	<path display="inline" fill="url(#SVGID_34_)" d="M376.428,126.802c-3.75,29.198-26.502,77.805-67.188,160.906   c0.088-0.179-2.947,6.292-9.729,20.292H182.438l-0.01,0.021L-121.238,309c0,0-12.834-81,62.166-104h4.596h113.27h94.635h0.313   h5.656c0,0,44.129,1.756,70.281-13.25c43.25-26,49.75-61.25,47.75-103.75c-5.246-111.488-148.662-104.633-174-102.187   L52.045-116.353l111.383,0.16C163.428-116.192,407.781-117.317,376.428,126.802z"/>
	
		<linearGradient id="SVGID_35_" gradientUnits="userSpaceOnUse" x1="220.3135" y1="-2872.6787" x2="220.3134" y2="-2239.9348" gradientTransform="matrix(1 0 0 -1 0 -2036)">
		<stop offset="0.5765" style="stop-color:#D8A030"/>
		<stop offset="0.7908" style="stop-color:#FCD535"/>
	</linearGradient>
	<path display="inline" fill="url(#SVGID_35_)" d="M200.438,503.924l-58.977-118.175l-0.033,0.077l-0.313-0.616l39.73-77.21h118.666   C270.539,365.383,201.883,501.086,200.438,503.924z"/>
	
		<linearGradient id="SVGID_36_" gradientUnits="userSpaceOnUse" x1="13.0938" y1="-2480.5669" x2="200.4678" y2="-2480.5669" gradientTransform="matrix(1 0 0 -1 0 -2036)">
		<stop offset="0" style="stop-color:#D8A030"/>
		<stop offset="0.5714" style="stop-color:#FCD535"/>
	</linearGradient>
	<path display="inline" fill="url(#SVGID_36_)" d="M141.428,385.826l0.033-0.077l58.977,118.175   c-0.01,0.021-0.021,0.043-0.025,0.049L140.975,385.39l0.117-0.229l0.023,0.049l-0.023,0.049L141.428,385.826z"/>
	
		<linearGradient id="SVGID_37_" gradientUnits="userSpaceOnUse" x1="-123.3535" y1="-2480.5669" x2="379.542" y2="-2480.5669" gradientTransform="matrix(1 0 0 -1 0 -2036)">
		<stop offset="0" style="stop-color:#D8A030"/>
		<stop offset="0.5714" style="stop-color:#FCD535"/>
	</linearGradient>
	<path display="inline" fill="url(#SVGID_37_)" d="M141.428,385.826l0.033-0.077l58.977,118.175   c-0.01,0.021-0.021,0.043-0.025,0.049L140.975,385.39l0.117-0.229l0.023,0.049l-0.023,0.049L141.428,385.826z"/>
	
		<linearGradient id="SVGID_38_" gradientUnits="userSpaceOnUse" x1="-122.5859" y1="-2421.5181" x2="378.8533" y2="-2421.5181" gradientTransform="matrix(1 0 0 -1 0 -2036)">
		<stop offset="0" style="stop-color:#D8A030"/>
		<stop offset="0.5714" style="stop-color:#FCD535"/>
	</linearGradient>
	<polygon display="inline" fill="url(#SVGID_38_)" points="141.092,385.259 141.115,385.21 141.428,385.826  "/>
	
		<linearGradient id="SVGID_39_" gradientUnits="userSpaceOnUse" x1="13.4658" y1="-2421.5181" x2="200.2968" y2="-2421.5181" gradientTransform="matrix(1 0 0 -1 0 -2036)">
		<stop offset="0" style="stop-color:#D8A030"/>
		<stop offset="0.5714" style="stop-color:#FCD535"/>
	</linearGradient>
	<polygon display="inline" fill="url(#SVGID_39_)" points="141.092,385.259 141.115,385.21 141.428,385.826  "/>
	
		<linearGradient id="SVGID_40_" gradientUnits="userSpaceOnUse" x1="-122.5859" y1="-2421.5181" x2="378.8519" y2="-2421.5181" gradientTransform="matrix(1 0 0 -1 0 -2036)">
		<stop offset="0" style="stop-color:#D8A030"/>
		<stop offset="0.5714" style="stop-color:#FCD535"/>
	</linearGradient>
	<polygon display="inline" fill="url(#SVGID_40_)" points="141.092,385.259 141.115,385.21 141.428,385.826  "/>
	
		<linearGradient id="SVGID_41_" gradientUnits="userSpaceOnUse" x1="-61" y1="-2050.8237" x2="187.7148" y2="-2050.8237" gradientTransform="matrix(1 0 0 -1 0 -2036)">
		<stop offset="0" style="stop-color:#D8A030"/>
		<stop offset="0.5714" style="stop-color:#FCD535"/>
	</linearGradient>
	<polygon display="inline" fill="url(#SVGID_41_)" points="187.715,146 74.096,146 -61,-116.334 52.045,-116.353  "/>
</g>
<g id="Layer_15" display="none">
	<path display="inline" fill="#FFFFFF" d="M3040.531,329.717c3.139-31.643,23.225-76.291,72.555-76.291   c53.424,0,66.299,48.337,66.581,77.413l106.667,0.667c-10.516-80.768-59.54-156.116-166.301-156.116   c-131.241,0-190.685,105.804-190.685,201.532c0,118.117,73.34,192.249,201.492,192.249c50.952,0,98.044-7.71,136.645-23.15   l-15.439-79.511c-31.652,10.035-64.076,15.282-104.221,15.282c-54.804,0-102.661-22.945-106.534-71.93   c0,0.042-0.001,0.125-0.002,0.12c-0.012-0.09-0.021-0.177-0.032-0.267"/>
	<path display="inline" fill="#FCD535" d="M3041.289,409.839c0,0.008,0.002,0.016,0.002,0.023c0-0.015,0.001-0.023,0.001-0.023   H3041.289z"/>
	<polygon display="inline" fill="#E6E6E6" points="3177,330 3179.478,330 3177,329.837  "/>
	<linearGradient id="SVGID_42_" gradientUnits="userSpaceOnUse" x1="3038.5479" y1="369.9092" x2="3288.3301" y2="369.9092">
		<stop offset="0" style="stop-color:#B3B3B6"/>
		<stop offset="0.469" style="stop-color:#E6E6E7"/>
		<stop offset="0.7398" style="stop-color:#FFFFFF"/>
	</linearGradient>
	<path display="inline" fill="url(#SVGID_42_)" d="M3288.33,363.758c0-11.314-0.687-22.758-2.098-33.758h-106.755H3177h-136   l-0.484-0.065c-1.25,11.6-2.614,32.882-1.633,55.126c0.482,7.408,1.228,15.502,2.333,24.333c0.018,0.114,0.034,0.217,0.053,0.331   l243.201,0.158C3286.014,401.884,3288.33,383.83,3288.33,363.758z"/>
	<path display="inline" fill="#FCD535" d="M3041.257,409.716h0.012c-0.019-0.114-0.035-0.228-0.053-0.342   C3041.23,409.489,3041.242,409.6,3041.257,409.716z"/>
	<path display="inline" fill="#FFFFFF" d="M3038.531,329.717c3.139-31.643,23.225-76.291,72.555-76.291   c53.424,0,66.299,48.337,66.581,77.413l106.667,0.667c-10.516-80.768-59.54-156.116-166.301-156.116   c-131.241,0-190.685,105.804-190.685,201.532c0,118.117,73.34,192.249,201.492,192.249c50.952,0,98.044-7.71,136.645-23.15   l-15.439-79.511c-31.652,10.035-64.076,15.282-104.221,15.282c-54.804,0-102.661-22.945-106.534-71.93   c0,0.042-0.001,0.125-0.002,0.121c-0.012-0.091-0.021-0.178-0.032-0.268"/>
	<linearGradient id="SVGID_43_" gradientUnits="userSpaceOnUse" x1="3036.5479" y1="369.9092" x2="3286.3301" y2="369.9092">
		<stop offset="0" style="stop-color:#B3B3B6"/>
		<stop offset="0.469" style="stop-color:#E6E6E7"/>
		<stop offset="0.7398" style="stop-color:#FFFFFF"/>
	</linearGradient>
	<path display="inline" fill="url(#SVGID_43_)" d="M3286.33,363.758c0-11.314-0.687-22.758-2.098-33.758h-106.755H3175h-136   l-0.484-0.065c-1.25,11.6-2.614,32.882-1.633,55.126c0.482,7.408,1.228,15.503,2.333,24.333c0.018,0.113,0.034,0.218,0.053,0.331   l243.201,0.158C3284.014,401.884,3286.33,383.83,3286.33,363.758z"/>
</g>
<g id="Layer_14" display="none">
	<linearGradient id="SVGID_44_" gradientUnits="userSpaceOnUse" x1="3347.5645" y1="411.3555" x2="3575.667" y2="411.3555">
		<stop offset="0.4337" style="stop-color:#FCD535"/>
		<stop offset="0.5768" style="stop-color:#F8CE34"/>
		<stop offset="0.7792" style="stop-color:#EBBC33"/>
		<stop offset="1" style="stop-color:#D8A030"/>
	</linearGradient>
	<path display="inline" fill="url(#SVGID_44_)" d="M3347.564,549h140.467l45.208-98.783c16.88-37.783,31.153-67.282,42.428-99.289   l-70.683-77.216L3347.564,549z"/>
	<linearGradient id="SVGID_45_" gradientUnits="userSpaceOnUse" x1="3584.0586" y1="138.7896" x2="3808.5234" y2="138.7896">
		<stop offset="0" style="stop-color:#D8A030"/>
		<stop offset="0.5714" style="stop-color:#FCD535"/>
	</linearGradient>
	<path display="inline" fill="url(#SVGID_45_)" d="M3808.523,6h-140.466l-46.017,99.007c-13.643,31.296-25.171,55.491-37.982,90.164   l71.082,76.408L3808.523,6z"/>
	<linearGradient id="SVGID_46_" gradientUnits="userSpaceOnUse" x1="3353.2148" y1="277" x2="3816.5967" y2="277">
		<stop offset="0" style="stop-color:#D8A030"/>
		<stop offset="0.5714" style="stop-color:#FCD535"/>
	</linearGradient>
	<path display="inline" fill="url(#SVGID_46_)" d="M3655.141,271.348L3655.141,271.348L3584.059,195h-0.769   c-12.915-30-25.024-56.961-41.171-90.061L3494.491,6h-141.276l151.77,268.79l0.066,0.085l71.696,78.238l0.087,0.08   c15.338,32.178,28.254,60.004,48.437,97.947L3674.514,548h142.083L3655.141,271.348z"/>
</g>
<g id="Layer_20" display="none">
	<linearGradient id="SVGID_47_" gradientUnits="userSpaceOnUse" x1="3928.1934" y1="864.4902" x2="3600.1653" y2="296.3289">
		<stop offset="0.6735" style="stop-color:#6966FF"/>
		<stop offset="0.7349" style="stop-color:#6562F5"/>
		<stop offset="0.8406" style="stop-color:#5A58D9"/>
		<stop offset="0.977" style="stop-color:#4947AC"/>
		<stop offset="1" style="stop-color:#4644A4"/>
	</linearGradient>
	<path display="inline" fill="url(#SVGID_47_)" d="M3655.128,264.596l-83.919,83.992c15.904,33.389,31.338,66.408,52.357,105.926   L3675.6,557h150.128L3655.128,264.596z"/>
	<linearGradient id="SVGID_48_" gradientUnits="userSpaceOnUse" x1="3330.1348" y1="271" x2="3817.1973" y2="271">
		<stop offset="0.4898" style="stop-color:#6966FF"/>
		<stop offset="0.5858" style="stop-color:#6562F5"/>
		<stop offset="0.7509" style="stop-color:#5A58D9"/>
		<stop offset="0.964" style="stop-color:#4947AC"/>
		<stop offset="1" style="stop-color:#4644A4"/>
	</linearGradient>
	<path display="inline" fill="url(#SVGID_48_)" d="M3817.197-16h-148.421l-48.621,104.691   c-14.414,33.068-26.595,58.309-40.132,95.309h-0.813c-0.087,0-0.173-0.485-0.26-0.688l-82.395,83.749l0.014-0.005l-0.385,0.459   L3330.135,558h148.423l47.768-104.506c17.118-38.313,31.688-68.633,43.366-100.902l0.234-0.671c0.24-0.666,0.652-1.788,0.979-2.684   l0.097-0.102l84.126-84.537l0,0L3817.197-16z"/>
	<linearGradient id="SVGID_49_" gradientUnits="userSpaceOnUse" x1="3337.2939" y1="125.7803" x2="3579.2109" y2="125.7803">
		<stop offset="0" style="stop-color:#6966FF"/>
		<stop offset="0.1766" style="stop-color:#6663F8"/>
		<stop offset="0.432" style="stop-color:#5F5CE5"/>
		<stop offset="0.7337" style="stop-color:#5351C6"/>
		<stop offset="1" style="stop-color:#4644A4"/>
	</linearGradient>
	<path display="inline" fill="url(#SVGID_49_)" d="M3535.708,88.53l-50.327-104.691l-148.087,1.709l159.282,282.173l82.635-83.883   C3565.904,152.712,3552.387,122.719,3535.708,88.53z"/>
</g>
<g id="Layer_12" display="none">
	
		<linearGradient id="SVGID_50_" gradientUnits="userSpaceOnUse" x1="3158.3789" y1="-1788.5581" x2="3158.3789" y2="-1044.3062" gradientTransform="matrix(0.8978 0.4404 -0.4404 0.8978 64.03 56.7357)">
		<stop offset="0.1633" style="stop-color:#D8A030"/>
		<stop offset="0.4439" style="stop-color:#FCD535"/>
	</linearGradient>
	<polygon display="inline" fill="url(#SVGID_50_)" points="3425.428,487 3312.428,487 3623.717,-135 3734.412,-134.973  "/>
	
		<linearGradient id="SVGID_51_" gradientUnits="userSpaceOnUse" x1="3264.042" y1="-1568.6143" x2="3264.042" y2="-824.3628" gradientTransform="matrix(0.8978 -0.4404 -0.4404 -0.8978 64.03 541.2632)">
		<stop offset="0.1633" style="stop-color:#D8A030"/>
		<stop offset="0.4439" style="stop-color:#FCD535"/>
	</linearGradient>
	<polygon display="inline" fill="url(#SVGID_51_)" points="3423.428,-133 3310.428,-133 3621.717,489 3732.412,488.973  "/>
</g>
<g id="Layer_10" display="none">
	<linearGradient id="SVGID_52_" gradientUnits="userSpaceOnUse" x1="-259.5723" y1="324.5" x2="20.4299" y2="324.5">
		<stop offset="0" style="stop-color:#FCD535"/>
		<stop offset="0.2101" style="stop-color:#ECBE33"/>
		<stop offset="0.4383" style="stop-color:#E1AD31"/>
		<stop offset="0.6884" style="stop-color:#DAA330"/>
		<stop offset="1" style="stop-color:#D8A030"/>
	</linearGradient>
	<polygon display="inline" fill="url(#SVGID_52_)" points="-93.477,163 -98.072,163.05 -259.572,486 -146.572,486 19.793,163  "/>
	<linearGradient id="SVGID_53_" gradientUnits="userSpaceOnUse" x1="322.6777" y1="377.1689" x2="470.9277" y2="377.1689">
		<stop offset="0" style="stop-color:#D8A030"/>
		<stop offset="0.8827" style="stop-color:#FCD535"/>
	</linearGradient>
	<path display="inline" fill="url(#SVGID_53_)" d="M362.678,269.75c6.5,96.25-40,143.25-40,143.25l36.75,72h111.5   C470.928,485,361.912,258.4,362.678,269.75z"/>
	<linearGradient id="SVGID_54_" gradientUnits="userSpaceOnUse" x1="-96.2383" y1="345.2168" x2="155.7148" y2="345.2168">
		<stop offset="0" style="stop-color:#FCD535"/>
		<stop offset="0.2355" style="stop-color:#F8CF34"/>
		<stop offset="0.5477" style="stop-color:#EEBE33"/>
		<stop offset="0.9014" style="stop-color:#DDA331"/>
		<stop offset="1" style="stop-color:#D89A30"/>
	</linearGradient>
	<polygon display="inline" fill="url(#SVGID_54_)" points="155.715,205 42.096,205 -96.238,485.434 15.045,485.217  "/>
	<linearGradient id="SVGID_55_" gradientUnits="userSpaceOnUse" x1="-24.9063" y1="-58.8428" x2="162.4688" y2="-58.8428">
		<stop offset="0" style="stop-color:#D8AC30"/>
		<stop offset="0.4102" style="stop-color:#E8BE32"/>
		<stop offset="1" style="stop-color:#FCD535"/>
	</linearGradient>
	<path display="inline" fill="url(#SVGID_55_)" d="M162.412-135.973c0.004,0.007,0.016,0.029,0.025,0.049l0.031-0.061   c-0.004-0.005-0.006-0.01-0.008-0.016H51.717L-24.906,18.098l110.008,0.217l17.99-35.476l-0.117-0.229L162.412-135.973z"/>
	<linearGradient id="SVGID_56_" gradientUnits="userSpaceOnUse" x1="-259.5723" y1="162.3828" x2="20.4273" y2="162.3828">
		<stop offset="0" style="stop-color:#FCD535"/>
		<stop offset="0.1214" style="stop-color:#F2CA34"/>
		<stop offset="0.3751" style="stop-color:#E4B932"/>
		<stop offset="0.6534" style="stop-color:#DBAF30"/>
		<stop offset="1" style="stop-color:#D8AC30"/>
	</linearGradient>
	<polygon display="inline" fill="url(#SVGID_56_)" points="20.428,161.766 -93.477,163 19.793,163  "/>
	<linearGradient id="SVGID_57_" gradientUnits="userSpaceOnUse" x1="-161.3535" y1="162.3828" x2="366.5565" y2="162.3828">
		<stop offset="0" style="stop-color:#D8AC30"/>
		<stop offset="0.1346" style="stop-color:#E7BD32"/>
		<stop offset="0.3191" style="stop-color:#F7CF34"/>
		<stop offset="0.4541" style="stop-color:#FCD535"/>
		<stop offset="0.7738" style="stop-color:#FEEF77"/>
		<stop offset="0.9949" style="stop-color:#FFFFA1"/>
	</linearGradient>
	<polygon display="inline" fill="url(#SVGID_57_)" points="20.428,161.766 -93.477,163 19.793,163  "/>
	<linearGradient id="SVGID_58_" gradientUnits="userSpaceOnUse" x1="-82.626" y1="387.6816" x2="253.2837" y2="51.7719">
		<stop offset="0" style="stop-color:#D8A030"/>
		<stop offset="0.0162" style="stop-color:#D9A130"/>
		<stop offset="0.6604" style="stop-color:#F2C734"/>
		<stop offset="1" style="stop-color:#FCD535"/>
	</linearGradient>
	<path display="inline" fill="url(#SVGID_58_)" d="M338.428,241.198c-3.75-29.198-26.502-77.805-67.188-160.906   c0.088,0.179-2.947-6.292-9.729-20.292H144.438l-0.01-0.021L-159.238,59c0,0-12.834,81,62.166,104h4.596h113.27h94.635h0.313h5.656   c0,0,44.129-1.756,70.281,13.25c43.25,26,49.75,61.25,47.75,103.75c-5.246,111.488-148.662,104.633-174,102.187L14.045,484.353   l111.383-0.16C125.428,484.192,369.781,485.317,338.428,241.198z"/>
	<linearGradient id="SVGID_59_" gradientUnits="userSpaceOnUse" x1="182.3135" y1="-468.6787" x2="182.3134" y2="164.0651">
		<stop offset="0" style="stop-color:#D8A030"/>
		<stop offset="0.2584" style="stop-color:#DBA530"/>
		<stop offset="0.5582" style="stop-color:#E5B332"/>
		<stop offset="0.8776" style="stop-color:#F5CA34"/>
		<stop offset="1" style="stop-color:#FCD535"/>
	</linearGradient>
	<path display="inline" fill="url(#SVGID_59_)" d="M162.438-135.924L103.461-17.749l-0.033-0.077l-0.313,0.616L142.846,60h118.666   C232.539,2.617,163.883-133.086,162.438-135.924z"/>
	<linearGradient id="SVGID_60_" gradientUnits="userSpaceOnUse" x1="-24.9063" y1="-76.5674" x2="162.4678" y2="-76.5674">
		<stop offset="0" style="stop-color:#D8AC30"/>
		<stop offset="0.4102" style="stop-color:#E8BE32"/>
		<stop offset="1" style="stop-color:#FCD535"/>
	</linearGradient>
	<path display="inline" fill="url(#SVGID_60_)" d="M103.428-17.826l0.033,0.077l58.977-118.175c-0.01-0.021-0.021-0.042-0.025-0.049   L102.975-17.39l0.117,0.229l0.023-0.049l-0.023-0.049L103.428-17.826z"/>
	<linearGradient id="SVGID_61_" gradientUnits="userSpaceOnUse" x1="-161.3535" y1="-76.5674" x2="341.542" y2="-76.5674">
		<stop offset="0" style="stop-color:#D89A30"/>
		<stop offset="0.1914" style="stop-color:#D89A30"/>
		<stop offset="0.1939" style="stop-color:#D89A30"/>
		<stop offset="0.4146" style="stop-color:#DB9E2C"/>
		<stop offset="0.6416" style="stop-color:#E4AA21"/>
		<stop offset="0.8707" style="stop-color:#F4BF0E"/>
		<stop offset="1" style="stop-color:#FFCE00"/>
	</linearGradient>
	<path display="inline" fill="url(#SVGID_61_)" d="M103.428-17.826l0.033,0.077l58.977-118.175c-0.01-0.021-0.021-0.042-0.025-0.049   L102.975-17.39l0.117,0.229l0.023-0.049l-0.023-0.049L103.428-17.826z"/>
	<linearGradient id="SVGID_62_" gradientUnits="userSpaceOnUse" x1="-160.5859" y1="-17.5181" x2="340.8533" y2="-17.5181">
		<stop offset="0" style="stop-color:#D89A30"/>
		<stop offset="0.1914" style="stop-color:#D89A30"/>
		<stop offset="0.1939" style="stop-color:#D89A30"/>
		<stop offset="0.4146" style="stop-color:#DB9E2C"/>
		<stop offset="0.6416" style="stop-color:#E4AA21"/>
		<stop offset="0.8707" style="stop-color:#F4BF0E"/>
		<stop offset="1" style="stop-color:#FFCE00"/>
	</linearGradient>
	<polygon display="inline" fill="url(#SVGID_62_)" points="103.092,-17.259 103.115,-17.21 103.428,-17.826  "/>
	<linearGradient id="SVGID_63_" gradientUnits="userSpaceOnUse" x1="-24.5342" y1="-17.5181" x2="162.2968" y2="-17.5181">
		<stop offset="0" style="stop-color:#D8AC30"/>
		<stop offset="0.4102" style="stop-color:#E8BE32"/>
		<stop offset="1" style="stop-color:#FCD535"/>
	</linearGradient>
	<polygon display="inline" fill="url(#SVGID_63_)" points="103.092,-17.259 103.115,-17.21 103.428,-17.826  "/>
	<linearGradient id="SVGID_64_" gradientUnits="userSpaceOnUse" x1="-160.5859" y1="-17.5181" x2="340.8519" y2="-17.5181">
		<stop offset="0" style="stop-color:#D89A30"/>
		<stop offset="0.1914" style="stop-color:#D89A30"/>
		<stop offset="0.1939" style="stop-color:#D89A30"/>
		<stop offset="0.4146" style="stop-color:#DB9E2C"/>
		<stop offset="0.6416" style="stop-color:#E4AA21"/>
		<stop offset="0.8707" style="stop-color:#F4BF0E"/>
		<stop offset="1" style="stop-color:#FFCE00"/>
	</linearGradient>
	<polygon display="inline" fill="url(#SVGID_64_)" points="103.092,-17.259 103.115,-17.21 103.428,-17.826  "/>
</g>
<g id="Layer_11" display="none">
	<linearGradient id="SVGID_65_" gradientUnits="userSpaceOnUse" x1="171.2012" y1="380.5039" x2="-11.509" y2="275.0161">
		<stop offset="0" style="stop-color:#D8A030"/>
		<stop offset="0.2926" style="stop-color:#DAA330"/>
		<stop offset="0.5465" style="stop-color:#E2AE31"/>
		<stop offset="0.7853" style="stop-color:#EEC033"/>
		<stop offset="0.9847" style="stop-color:#FCD535"/>
	</linearGradient>
	<polygon display="inline" fill="url(#SVGID_65_)" points="2.5,250.75 -45.519,364.83 180.239,364.849 135.634,250.519  "/>
	<linearGradient id="SVGID_66_" gradientUnits="userSpaceOnUse" x1="188" y1="138.8965" x2="491.5605" y2="138.8965">
		<stop offset="0" style="stop-color:#D8A030"/>
		<stop offset="0.5714" style="stop-color:#FCD535"/>
	</linearGradient>
	<path display="inline" fill="url(#SVGID_66_)" d="M188-87.167v102L298,15c0,0,98.64,32.119,89.386,115.407   c-9.253,83.288-60.148,112.533-72.487,117.161c-12.339,4.626-102.148,3.183-102.148,3.183l0.25,114L313.912,365   c0,0,191.088-46.5,176.896-239.059C477.391-56.092,339.094-84.457,317.5-86C295.908-87.542,188-87.167,188-87.167z"/>
	<path display="inline" fill="none" d="M3096.086,170.595c-49.33,0-69.416,44.644-72.555,76.287L3160,247.008l-0.016-0.008h2.471   C3162.189,217,3149.51,170.595,3096.086,170.595z"/>
	<path display="inline" fill="#FFFFFF" d="M3023.531,246.878c3.139-31.644,23.225-76.291,72.555-76.291   c53.424,0,66.299,48.337,66.581,77.413l106.667,0.667c-10.516-80.768-59.54-156.116-166.301-156.116   c-131.241,0-190.685,105.804-190.685,201.532c0,118.117,73.34,192.249,201.492,192.249c50.952,0,98.044-7.71,136.645-23.15   l-15.439-79.511c-31.652,10.035-64.076,15.282-104.221,15.282c-54.804,0-102.661-22.945-106.534-71.93   c0,0.042-0.001,0.125-0.002,0.121c-0.012-0.091-0.021-0.178-0.032-0.268"/>
	<path display="inline" fill="#FCD535" d="M3024.289,327c0,0.008,0.002,0.016,0.002,0.023c0-0.014,0.001-0.023,0.001-0.023H3024.289   z"/>
	<polygon display="inline" fill="#E6E6E6" points="3160,247 3162.478,247 3160,246.998  "/>
	<path display="inline" fill="none" d="M3021.883,302.183c0.359,8.142,1.084,16.402,2.333,24.353   C3023.11,317.705,3022.365,309.591,3021.883,302.183z"/>
	<linearGradient id="SVGID_67_" gradientUnits="userSpaceOnUse" x1="3021.5479" y1="287" x2="3271.3301" y2="287">
		<stop offset="0" style="stop-color:#B3B3B6"/>
		<stop offset="0.469" style="stop-color:#E6E6E7"/>
		<stop offset="0.7398" style="stop-color:#FFFFFF"/>
	</linearGradient>
	<path display="inline" fill="url(#SVGID_67_)" d="M3271.33,280.84c0-11.316-0.687-22.652-2.098-33.84h-106.755H3160h-136   l-0.484,0.016c-1.25,11.6-2.614,32.923-1.633,55.167c0.482,7.408,1.228,15.522,2.333,24.353c0.018,0.113,0.034,0.229,0.053,0.342   L3267.47,327C3269.014,319,3271.33,300.912,3271.33,280.84z"/>
	<path display="inline" fill="#FCD535" d="M3024.257,326.877h0.012c-0.019-0.113-0.035-0.229-0.053-0.342   C3024.23,326.65,3024.242,326.762,3024.257,326.877z"/>
	<path display="inline" fill="none" d="M3547.926,273.063l1.773-1.808l-0.807-0.882   C3548.574,271.272,3548.248,272.166,3547.926,273.063z"/>
	<linearGradient id="SVGID_68_" gradientUnits="userSpaceOnUse" x1="3906.9727" y1="795.8398" x2="3577.333" y2="224.8873">
		<stop offset="0.6735" style="stop-color:#6966FF"/>
		<stop offset="0.7349" style="stop-color:#6562F5"/>
		<stop offset="0.8406" style="stop-color:#5A58D9"/>
		<stop offset="0.977" style="stop-color:#4947AC"/>
		<stop offset="1" style="stop-color:#4644A4"/>
	</linearGradient>
	<path display="inline" fill="url(#SVGID_68_)" d="M3633.128,192.676l-83.919,84.033c15.904,33.389,31.338,66.348,52.357,105.865   L3653.6,487h150.128L3633.128,192.676z"/>
	<linearGradient id="SVGID_69_" gradientUnits="userSpaceOnUse" x1="3308.1348" y1="199" x2="3795.1973" y2="199">
		<stop offset="0.4898" style="stop-color:#6966FF"/>
		<stop offset="0.5858" style="stop-color:#6562F5"/>
		<stop offset="0.7509" style="stop-color:#5A58D9"/>
		<stop offset="0.964" style="stop-color:#4947AC"/>
		<stop offset="1" style="stop-color:#4644A4"/>
	</linearGradient>
	<path display="inline" fill="url(#SVGID_69_)" d="M3795.197-88h-148.421l-48.621,104.691   c-14.414,33.068-26.595,58.672-40.132,95.309h-0.813c-0.087-0.204-0.173-0.404-0.26-0.607l-82.395,83.789l0.014,0.015l-0.385,0.388   L3308.135,486h148.423l47.768-104.426c17.118-38.313,31.688-68.592,43.366-100.861l0.234-0.65c0.24-0.666,0.652-1.778,0.979-2.675   l0.097-0.097l84.126-84.615l0,0L3795.197-88z"/>
	<linearGradient id="SVGID_70_" gradientUnits="userSpaceOnUse" x1="3315.2939" y1="53.9414" x2="3557.2109" y2="53.9414">
		<stop offset="0" style="stop-color:#6966FF"/>
		<stop offset="0.1766" style="stop-color:#6663F8"/>
		<stop offset="0.432" style="stop-color:#5F5CE5"/>
		<stop offset="0.7337" style="stop-color:#5351C6"/>
		<stop offset="1" style="stop-color:#4644A4"/>
	</linearGradient>
	<path display="inline" fill="url(#SVGID_70_)" d="M3513.708,16.691L3463.381-88l-148.087,1.709l159.282,282.174L3557.211,112   C3543.904,80.873,3530.387,50.881,3513.708,16.691z"/>
	<linearGradient id="SVGID_71_" gradientUnits="userSpaceOnUse" x1="3307.5645" y1="340.5439" x2="3548.584" y2="340.5439">
		<stop offset="0.4337" style="stop-color:#FCD535"/>
		<stop offset="0.5768" style="stop-color:#F8CE34"/>
		<stop offset="0.7792" style="stop-color:#EBBC33"/>
		<stop offset="1" style="stop-color:#D8A030"/>
	</linearGradient>
	<path display="inline" fill="url(#SVGID_71_)" d="M3307.564,486h148.422l47.768-104.426c17.836-39.922,32.916-71.115,44.83-104.934   l-74.686-81.553L3307.564,486z"/>
	<linearGradient id="SVGID_72_" gradientUnits="userSpaceOnUse" x1="3557.4512" y1="52.3379" x2="3794.625" y2="52.3379">
		<stop offset="0" style="stop-color:#D8A030"/>
		<stop offset="0.5714" style="stop-color:#FCD535"/>
	</linearGradient>
	<path display="inline" fill="url(#SVGID_72_)" d="M3794.625-88h-148.42l-48.621,104.691   c-14.414,33.068-26.596,58.672-40.133,95.309l75.105,80.676L3794.625-88z"/>
	<linearGradient id="SVGID_73_" gradientUnits="userSpaceOnUse" x1="3313.5352" y1="199.5" x2="3803.1563" y2="199.5">
		<stop offset="0" style="stop-color:#D8A030"/>
		<stop offset="0.5714" style="stop-color:#FCD535"/>
	</linearGradient>
	<path display="inline" fill="url(#SVGID_73_)" d="M3632.557,192.676L3632.557,192.676L3557.451,112h-0.813   c-13.646-32-26.441-60.336-43.502-95.309L3462.811-88h-149.275l160.363,284.088l0.07,0.13l75.756,82.688l0.092,0.094   c16.207,34,29.854,63.482,51.18,103.574L3653.027,487h150.129L3632.557,192.676z"/>
	<path display="inline" fill="#FFFFFF" d="M3021.531,246.878c3.139-31.644,23.225-76.291,72.555-76.291   c53.424,0,66.299,48.337,66.581,77.413l106.667,0.667c-10.516-80.768-59.54-156.116-166.301-156.116   c-131.241,0-190.685,105.804-190.685,201.532c0,118.117,73.34,192.249,201.492,192.249c50.952,0,98.044-7.71,136.645-23.15   l-15.439-79.511c-31.652,10.035-64.076,15.282-104.221,15.282c-54.804,0-102.661-22.945-106.534-71.93   c0,0.042-0.001,0.125-0.002,0.121c-0.012-0.091-0.021-0.178-0.032-0.268"/>
	<linearGradient id="SVGID_74_" gradientUnits="userSpaceOnUse" x1="3019.5479" y1="287" x2="3269.3301" y2="287">
		<stop offset="0" style="stop-color:#B3B3B6"/>
		<stop offset="0.469" style="stop-color:#E6E6E7"/>
		<stop offset="0.7398" style="stop-color:#FFFFFF"/>
	</linearGradient>
	<path display="inline" fill="url(#SVGID_74_)" d="M3269.33,280.84c0-11.316-0.687-22.652-2.098-33.84h-106.755H3158h-136   l-0.484,0.016c-1.25,11.6-2.614,32.923-1.633,55.167c0.482,7.408,1.228,15.522,2.333,24.353c0.018,0.113,0.034,0.229,0.053,0.342   L3265.47,327C3267.014,319,3269.33,300.912,3269.33,280.84z"/>
	<path display="inline" fill="#FCD535" d="M194-88H77v579.5c25.472-34.861,112.667-122.588,117.167-316.716L194-88z"/>
	<linearGradient id="SVGID_75_" gradientUnits="userSpaceOnUse" x1="77" y1="335.5669" x2="194" y2="335.5669">
		<stop offset="0" style="stop-color:#D8A030"/>
		<stop offset="0.6531" style="stop-color:#FCD535"/>
	</linearGradient>
	<path display="inline" fill="url(#SVGID_75_)" d="M194,492V179.134C180.048,275.321,148.459,401,77,492H194z"/>
	<linearGradient id="SVGID_76_" gradientUnits="userSpaceOnUse" x1="-263.3213" y1="436.626" x2="202.331" y2="-29.0264">
		<stop offset="0" style="stop-color:#FCD535"/>
		<stop offset="0.2576" style="stop-color:#F7CD34"/>
		<stop offset="0.646" style="stop-color:#E9B932"/>
		<stop offset="1" style="stop-color:#D8A030"/>
	</linearGradient>
	<polygon display="inline" fill="url(#SVGID_76_)" points="-206.947,493 39.558,-88 143.357,-88 -97.948,493  "/>
</g>
<g id="lpad" display="none">
	<g display="inline">
		<linearGradient id="SVGID_77_" gradientUnits="userSpaceOnUse" x1="2293.7246" y1="296.8389" x2="2294.1543" y2="296.8389">
			<stop offset="0.2092" style="stop-color:#FFFFFF"/>
			<stop offset="0.3546" style="stop-color:#FFE5EC"/>
			<stop offset="0.6661" style="stop-color:#FFA2BA"/>
			<stop offset="1" style="stop-color:#FF5481"/>
		</linearGradient>
		<path fill="url(#SVGID_77_)" d="M2294,296.839C2294,296.839,2294.011,296.839,2294,296.839"/>
		<g>
			<path fill="#FFFFFF" d="M2294.031,297c-0.011,0-0.021,0-0.031,0l0.259,6.207L2294.031,297z"/>
			<g>
				<path fill="#FFFFFF" d="M2294.031,297c-0.011,0-0.021,0-0.031,0l0.259,6.207L2294.031,297z"/>
				<g>
					<path fill="#FFFFFF" d="M2293.906,297c-0.011,0-0.021,0-0.031,0l0.259,6.207L2293.906,297z"/>
					<path fill="#FFFFFF" d="M2246.121,172.077c-68.707,0-120.381,18.528-146.629,33.196l21.642,75.657       c24.705-15.44,65.59-28.564,104.19-28.564c57.898,0,68.676,28.564,68.676,48.636v5.401       c-133-0.688-221.525,46.407-221.525,144.368c0,60.217,45.574,115.979,122.002,115.979c44.775,0,83.387-16.143,108.092-46.143       c58.518-54,96.606-101.288,105.997-141.197c1.402-5.96,2.468-8.554,3.341-18.774c0.061-0.709,0.096-1.092,0.096-1.092       s-0.002-0.154-0.002-0.173v-24.401C2412,246.189,2371.959,172.077,2246.121,172.077z M2294.131,309l0.228,6.207L2294.1,309       C2294.11,309,2294.12,309,2294.131,309z M2295.822,440.723c-7.72,23.932-31.747,43.238-61.083,43.238       c-0.752,0-1.522-0.019-2.265-0.044c-0.086-0.002-0.186,0-0.27-0.002c-0.626-0.023-1.251-0.059-1.868-0.1       c-0.27-0.018-0.544-0.031-0.812-0.053c-0.586-0.045-1.168-0.099-1.746-0.161c-0.281-0.029-0.562-0.062-0.841-0.095       c-0.578-0.07-1.157-0.141-1.728-0.227c-0.188-0.027-0.372-0.063-0.559-0.092c-0.596-0.096-1.195-0.184-1.781-0.295       c-0.346-0.066-0.679-0.152-1.02-0.225c-0.033-0.008-0.066-0.016-0.1-0.021c-7.11-1.518-13.441-4.371-18.638-8.57       c-0.018-0.016-0.035-0.027-0.053-0.043c-0.249-0.201-0.51-0.389-0.754-0.598c-1.188-0.992-2.307-2.066-3.366-3.205       c0.057,0.08,0.11,0.16,0.188,0.24c-0.149-0.16-0.289-0.33-0.436-0.494c-0.021-0.021-0.041-0.045-0.061-0.068       c-0.408-0.455-0.805-0.922-1.191-1.4c-0.241-0.293-0.479-0.588-0.711-0.891c-0.055-0.072-0.106-0.146-0.161-0.219       c-0.356-0.471-0.717-0.938-1.054-1.43c2.414,3.615,5.367,6.686,8.775,9.207c5.229,3.848,11.492,6.432,18.443,7.768       c-6.978-1.336-13.236-3.918-18.443-7.768c-7.161-5.271-12.366-12.924-14.744-22.975c-0.004-0.02-0.01-0.039-0.015-0.061       c-0.184-0.779-0.354-1.57-0.504-2.379c-0.005-0.025-0.009-0.053-0.013-0.078c-0.015-0.076-0.024-0.156-0.038-0.232       c-0.034-0.191-0.061-0.387-0.093-0.58c-0.021-0.119-0.039-0.242-0.059-0.363c-0.051-0.32-0.107-0.637-0.154-0.963       c-0.002-0.021-0.007-0.041-0.01-0.063c-0.026-0.188-0.05-0.377-0.074-0.564c-0.012-0.086-0.019-0.176-0.029-0.264       c-0.032-0.254-0.058-0.514-0.086-0.771c-0.028-0.252-0.061-0.5-0.085-0.754c-0.001-0.014-0.003-0.025-0.004-0.037       c-0.017-0.166-0.031-0.332-0.046-0.5c-0.009-0.088-0.018-0.178-0.025-0.268c-0.002-0.018-0.002-0.035-0.004-0.053       c-0.032-0.395-0.053-0.799-0.078-1.199c-0.01-0.178-0.025-0.354-0.034-0.531c-0.003-0.053-0.006-0.104-0.009-0.156       c-0.011-0.191-0.023-0.383-0.032-0.576c-0.027-0.67-0.038-0.155-0.044-0.841c-0.001-0.057-0.004,1.031-0.004,1.031H2188       c0,0,0-2.38,0-2.394c0,0.014,0,0.027,0,0.041l0,0v-0.455c0,0,0,0,0-0.002s0-0.002,0-0.002c0-0.002,0-0.002,0-0.002       c0-0.08,0.174-0.156,0.174-0.234c0-0.09,0.035-0.18,0.037-0.271c0.082-5.629,0.9-10.782,2.379-15.48       c0.154-0.488,0.319-0.974,0.487-1.452c0.053-0.15,0.116-0.296,0.169-0.445c0.168-0.471,0.345-0.938,0.526-1.399       c0.07-0.177,0.145-0.353,0.217-0.528c10.492-25.702,42.653-36.886,84.065-39.189c0.51-0.029,1.027-0.05,1.539-0.076       c0.244-0.013,0.491-0.024,0.735-0.036l18.167,0.735c0.007-0.002,0.014,1.191,0.021,1.191c0.023,0,0.046,0,0.069,0       c0,0,0.028,0,0.043,0c0,0,0.02-1.193,0.037-1.193l-0.039,0.131l1.373,39.514v0.037v0.094v0.014v0.008v0.038v0.013v0.008       c0,0.006,0,0.012,0,0.018v0.008c0,1.117,0.02,2.231-0.023,3.346c-0.006,0.155,0.018,0.312,0.01,0.467       c-0.006,0.128,0.105,0.255,0.1,0.382c-0.051,1.051-0.086,2.096-0.086,3.136c0,0.011,0-0.018,0-0.018"/>
				</g>
			</g>
		</g>
	</g>
	<linearGradient id="SVGID_78_" gradientUnits="userSpaceOnUse" x1="2650.7129" y1="457.8291" x2="2304.4058" y2="457.8291">
		<stop offset="0.4439" style="stop-color:#FFFFFF"/>
		<stop offset="0.6154" style="stop-color:#FCFCFC"/>
		<stop offset="0.7288" style="stop-color:#F3F3F4"/>
		<stop offset="0.8252" style="stop-color:#E4E4E6"/>
		<stop offset="0.9117" style="stop-color:#CFCFD1"/>
		<stop offset="0.9917" style="stop-color:#B4B4B7"/>
		<stop offset="0.9949" style="stop-color:#B3B3B6"/>
	</linearGradient>
	<path display="inline" fill="url(#SVGID_78_)" d="M2412,465.443V358.658c-0.005,0.045-0.014,0.11-0.031,0.228   c-0.051,0.333-0.107,0.651-0.158,0.982c-0.344,2.52-1.248,11.877-3.338,18.774c-19.632,64.793-102.77,138.918-104.066,140.355   l7.339,38.002h105.765C2413.649,537,2412,501.728,2412,465.443z"/>
	<path display="inline" fill="#F15A24" d="M2084.811,75.868c0.051-0.331,0.107-0.65,0.158-0.982   c0.018-0.117,0.026-0.183,0.031-0.227v-0.055c-0.012,0.018-0.047,0.173-0.047,0.173S2084.906,75.164,2084.811,75.868z"/>
	<g display="inline">
		<path fill="#FFFFFF" d="M1095,9H978v547.839c25.472-32.967,112.667-115.843,117.167-299.419L1095,9z"/>
		<linearGradient id="SVGID_79_" gradientUnits="userSpaceOnUse" x1="978" y1="409.2256" x2="1095" y2="409.2256">
			<stop offset="0" style="stop-color:#CCCCCC"/>
			<stop offset="0.2387" style="stop-color:#D8D8D8"/>
			<stop offset="0.6744" style="stop-color:#F9F9F9"/>
			<stop offset="0.7398" style="stop-color:#FFFFFF"/>
		</linearGradient>
		<path fill="url(#SVGID_79_)" d="M1095,557V261.451C1081.048,352.41,1049.459,472,978,557H1095z"/>
	</g>
	<linearGradient id="SVGID_80_" gradientUnits="userSpaceOnUse" x1="2675.875" y1="261.2246" x2="2486" y2="261.2246">
		<stop offset="0" style="stop-color:#FFFFFF"/>
		<stop offset="0.2655" style="stop-color:#FCFCFC"/>
		<stop offset="0.4803" style="stop-color:#F2F2F2"/>
		<stop offset="0.6773" style="stop-color:#E1E1E2"/>
		<stop offset="0.8625" style="stop-color:#C9C9CB"/>
		<stop offset="0.9949" style="stop-color:#B3B3B6"/>
	</linearGradient>
	<path display="inline" fill="url(#SVGID_80_)" d="M2675.875,173.839c-4.083-0.333-21.969-1.594-29.25-1.125   c-88.971,5.728-147.958,42.458-160.625,177.125C2509.652,311.497,2599.333,207.839,2675.875,173.839z"/>
	<path display="inline" fill="#FFFFFF" d="M2866,444.399V11h-116v204h-2.041c-15.893-25-36.168-37.768-72.168-41.101   c-28.124,8.521-126.597,65.407-189.791,175.98c-2.44,14.604-2.335,16.874-2.235,33.332c0,116.888,68.1,182.301,157.304,182.301   c48.446,0,93.816-21.512,117.656-63.512h1.538l5.383,55h103.814C2867.922,531,2866,486.694,2866,444.399z M2750,389.031   c0,9.996-1.021,18.414-3.327,26.873c-6.922,33.066-33.983,56.096-67.819,56.096c-0.021,0-0.043,0-0.064,0c-0.014,0-0.027,0-0.04,0   c-48.447,0-79.976-39.637-79.976-103.462c0-59.213,27.684-106.538,80.744-106.538h0.01h0.017c36.144,0,61.759,25.834,68.68,57.364   c0.769,6.152,1.776,14.299,1.776,20.451V389.031z"/>
	<path display="inline" fill="#FFFFFF" d="M1431.823,165.434c-44.055,0-80.642,13.438-107.788,39.491   c-3.34,3.372-6.617,7.046-9.838,10.646c-3.007,3.555-5.874,7.505-8.59,11.387l-1.258-0.152   C1249.521,293.76,1213,389.927,1200,432.615V686h118l-1-168h1.771c17.035,24,52.654,43.24,98.34,43.24   c84.402,0,171.902-65.104,171.902-202.937C1589.014,237.508,1514.678,165.434,1431.823,165.434z M1388.461,470.522   c-34.07,0-61.283-24.005-69.026-55.752c-1.549-6.969-2.435-15.487-2.435-24.779V338.11c0-6.968,0.886-14.712,2.435-20.907   c7.743-34.845,37.224-59.624,70.52-59.624c52.655,0,79.784,45.686,79.784,106.084   C1469.738,427.935,1439.567,470.522,1388.461,470.522z"/>
	<linearGradient id="SVGID_81_" gradientUnits="userSpaceOnUse" x1="1304.3496" y1="303.4365" x2="1196.4258" y2="303.4365">
		<stop offset="0" style="stop-color:#FFFFFF"/>
		<stop offset="0.2655" style="stop-color:#FCFCFC"/>
		<stop offset="0.4803" style="stop-color:#F2F2F2"/>
		<stop offset="0.6773" style="stop-color:#E1E1E2"/>
		<stop offset="0.8625" style="stop-color:#C9C9CB"/>
		<stop offset="0.9949" style="stop-color:#B3B3B6"/>
	</linearGradient>
	<path display="inline" fill="url(#SVGID_81_)" d="M1298.639,174h-102.213c1.549,35,3.574,77.385,3.574,126.942v131.931   c34-92.207,71.615-162.676,104.35-205.861L1298.639,174z"/>
</g>
<g id="Layer_18">
	<g>
		<polygon fill="none" points="407.636,323 407.385,323.898 408.258,323.898 408.437,323   "/>
		<path fill="none" d="M407.636,323L407.636,323l0.622,0.898L538.64,324l-37.006-126.227C491.061,162.529,480.487,118,471.677,83    h-1.763c-8.811,35-17.622,80.41-27.313,114.773L407.636,323L407.636,323L407.636,323z"/>
		<linearGradient id="SVGID_82_" gradientUnits="userSpaceOnUse" x1="131.3789" y1="383.166" x2="588.3517" y2="383.166">
			<stop offset="0" style="stop-color:#D8A030"/>
			<stop offset="0.5714" style="stop-color:#FCD535"/>
		</linearGradient>
		<polygon fill="url(#SVGID_82_)" points="220.25,333.083 187,433.333 274.22,433 306.334,333   "/>
	</g>
	<g>
		<path fill="none" d="M477.322,92.391l0.026-0.124c-8.622,34.678-17.264,78.879-26.748,112.507l-35.114,126.125L546.64,331    l-37.006-126.227c-10.313-34.374-20.619-77.555-29.296-112.138l-0.081,0.379"/>
		<linearGradient id="SVGID_83_" gradientUnits="userSpaceOnUse" x1="187.4893" y1="331.501" x2="782.3392" y2="331.501">
			<stop offset="0" style="stop-color:#D8A030"/>
			<stop offset="0.8226" style="stop-color:#FCD535"/>
		</linearGradient>
		<polygon fill="url(#SVGID_83_)" points="415.385,330.898 415.15,332.104 415.486,330.898   "/>
		<linearGradient id="SVGID_84_" gradientUnits="userSpaceOnUse" x1="183.9824" y1="78.1895" x2="810.1592" y2="439.7128">
			<stop offset="0" style="stop-color:#D8A030"/>
			<stop offset="0.2529" style="stop-color:#E0AC31"/>
			<stop offset="0.7099" style="stop-color:#F6CC34"/>
			<stop offset="0.8226" style="stop-color:#FCD535"/>
		</linearGradient>
		<polyline fill="url(#SVGID_84_)" points="534,332.5 431.125,332.625 396,348 386.765,432 564.667,432 612,576 731.475,576 533,29     505,29 455.032,118.603   "/>
	</g>
	<linearGradient id="SVGID_85_" gradientUnits="userSpaceOnUse" x1="100.1758" y1="302.5" x2="926.4478" y2="302.5">
		<stop offset="0" style="stop-color:#D8A030"/>
		<stop offset="0.0071" style="stop-color:#D9A130"/>
		<stop offset="0.2129" style="stop-color:#E8B832"/>
		<stop offset="0.4336" style="stop-color:#F3C834"/>
		<stop offset="0.6797" style="stop-color:#FAD235"/>
		<stop offset="1" style="stop-color:#FCD535"/>
	</linearGradient>
	<polygon fill="url(#SVGID_85_)" points="362,576 245,576 422,30 533,29  "/>
</g>
<g id="Layer_21">
	<path fill="none" d="M2905.086,273.595c-49.33,0-69.416,44.644-72.555,76.287L2969,350.008l-0.016-0.008h2.471   C2971.189,320,2958.51,273.595,2905.086,273.595z"/>
	<path fill="#FFFFFF" d="M2832.531,349.878c3.139-31.644,23.225-76.291,72.555-76.291c53.424,0,66.299,48.337,66.581,77.413   l106.667,0.667c-10.516-80.768-59.54-156.116-166.301-156.116c-131.241,0-190.685,105.804-190.685,201.532   c0,118.117,73.34,192.249,201.492,192.249c50.952,0,98.044-7.71,136.645-23.15l-15.439-79.511   c-31.652,10.035-64.076,15.282-104.221,15.282c-54.804,0-102.661-22.945-106.534-71.93c0,0.042-0.001,0.125-0.002,0.121   c-0.012-0.091-0.021-0.178-0.032-0.268"/>
	<polygon fill="#E6E6E6" points="2969,350 2971.478,350 2969,349.998  "/>
	<linearGradient id="SVGID_86_" gradientUnits="userSpaceOnUse" x1="2830.5479" y1="390" x2="3080.3301" y2="390">
		<stop offset="0" style="stop-color:#B3B3B6"/>
		<stop offset="0.469" style="stop-color:#E6E6E7"/>
		<stop offset="0.7398" style="stop-color:#FFFFFF"/>
	</linearGradient>
	<path fill="url(#SVGID_86_)" d="M3080.33,383.84c0-11.316-0.687-22.652-2.098-33.84h-106.755H2969h-136l-0.484,0.016   c-1.25,11.6-2.614,32.923-1.633,55.167c0.482,7.408,1.228,15.522,2.333,24.353c0.018,0.113,0.034,0.229,0.053,0.342L3076.47,430   C3078.014,422,3080.33,403.912,3080.33,383.84z"/>
	<path fill="none" d="M3361.926,377.063l1.773-1.808l-0.807-0.882C3362.574,375.272,3362.248,376.166,3361.926,377.063z"/>
	<linearGradient id="SVGID_87_" gradientUnits="userSpaceOnUse" x1="3125.5645" y1="437.626" x2="3356.5117" y2="437.626">
		<stop offset="0.4337" style="stop-color:#FCD535"/>
		<stop offset="0.5768" style="stop-color:#F8CE34"/>
		<stop offset="0.7792" style="stop-color:#EBBC33"/>
		<stop offset="1" style="stop-color:#D8A030"/>
	</linearGradient>
	<path fill="url(#SVGID_87_)" d="M3125.564,577h142.219l45.771-100.054c17.091-38.254,31.541-68.14,42.957-100.546l-71.564-78.148   L3125.564,577z"/>
	<linearGradient id="SVGID_88_" gradientUnits="userSpaceOnUse" x1="3365.0078" y1="161.4736" x2="3592.2705" y2="161.4736">
		<stop offset="0" style="stop-color:#D8A030"/>
		<stop offset="0.5714" style="stop-color:#FCD535"/>
	</linearGradient>
	<path fill="url(#SVGID_88_)" d="M3592.271,27h-142.218l-46.59,100.317c-13.811,31.687-25.483,56.221-38.455,91.327l71.967,77.303   L3592.271,27z"/>
	<linearGradient id="SVGID_89_" gradientUnits="userSpaceOnUse" x1="3134.1602" y1="303.7275" x2="3598.3809" y2="303.7275">
		<stop offset="0" style="stop-color:#D8A030"/>
		<stop offset="0.5714" style="stop-color:#FCD535"/>
	</linearGradient>
	<path fill="url(#SVGID_89_)" d="M3439.85,299.063L3439.85,299.063L3367.883,222h-0.779c-13.076-31-25.336-57.993-41.684-91.505   L3277.197,30H3134.16l153.662,272.154l0.066,0.094l72.59,79.218l0.088,0.081c15.531,32.58,28.605,60.826,49.041,99.242   l47.438,96.468l141.336,0.198L3439.85,299.063z"/>
	<path fill="#FFFFFF" d="M2830.531,349.878c3.139-31.644,23.225-76.291,72.555-76.291c53.424,0,66.299,48.337,66.581,77.413   l106.667,0.667c-10.516-80.768-59.54-156.116-166.301-156.116c-131.241,0-190.685,105.804-190.685,201.532   c0,118.117,73.34,192.249,201.492,192.249c50.952,0,98.044-7.71,136.645-23.15l-15.439-79.511   c-31.652,10.035-64.076,15.282-104.221,15.282c-54.804,0-102.661-22.945-106.534-71.93c0,0.042-0.001,0.125-0.002,0.121   c-0.012-0.091-0.021-0.178-0.032-0.268"/>
	<linearGradient id="SVGID_90_" gradientUnits="userSpaceOnUse" x1="2828.5479" y1="390" x2="3078.3301" y2="390">
		<stop offset="0" style="stop-color:#B3B3B6"/>
		<stop offset="0.469" style="stop-color:#E6E6E7"/>
		<stop offset="0.7398" style="stop-color:#FFFFFF"/>
	</linearGradient>
	<path fill="url(#SVGID_90_)" d="M3078.33,383.84c0-11.316-0.687-22.652-2.098-33.84h-106.755H2967h-136l-0.484,0.016   c-1.25,11.6-2.614,32.923-1.633,55.167c0.482,7.408,1.228,15.522,2.333,24.353c0.018,0.113,0.034,0.229,0.053,0.342L3074.47,430   C3076.014,422,3078.33,403.912,3078.33,383.84z"/>
</g>
<g id="Layer_17" display="none">
	<path display="inline" fill="none" d="M611.25,327.761L610.98,329h117.733l-34.188-116.291C684.759,180.149,674.99,140,666.851,107   h-1.628c-8.14,33-16.28,73.963-25.234,105.709L607.429,329h1.767l0.342-1.629L611.25,327.761z"/>
	<linearGradient id="SVGID_91_" gradientUnits="userSpaceOnUse" x1="369.333" y1="288.5" x2="922.4453" y2="288.5">
		<stop offset="0" style="stop-color:#D8A030"/>
		<stop offset="0.5714" style="stop-color:#FCD535"/>
	</linearGradient>
	<path display="inline" fill="url(#SVGID_91_)" d="M752.32,14h-162.8L421.838,563h128.611l39.071-141.08l0,0l17.908-93.041l0,0   l32.56-116.23C648.942,180.903,657.083,140,665.223,107h1.628c8.14,33,17.908,73.149,27.676,105.709L728.714,329H398.333l-29,93   h377.289l42.328,141h133.495L752.32,14z"/>
	<path display="inline" fill="none" d="M1499.25,1714.842l-0.27,1.158h378.733l-167.188-116.291   c-9.768-32.56-19.536-72.709-27.676-105.709h-1.628c-8.14,33-16.28,73.963-25.234,105.709L1495.429,1716h1.767l0.342-1.588   L1499.25,1714.842z"/>
</g>
<g id="Layer_19" display="none">
</g>
<g id="Layer_16" display="none">
	<g display="inline">
		
			<linearGradient id="SVGID_92_" gradientUnits="userSpaceOnUse" x1="2479.6436" y1="79.8682" x2="2593.8457" y2="79.8682" gradientTransform="matrix(0.7937 -0.6084 0.6084 0.7937 1115.9771 1409.1174)">
			<stop offset="0" style="stop-color:#D8A030"/>
			<stop offset="0.5714" style="stop-color:#FCD535"/>
		</linearGradient>
		<polygon fill="url(#SVGID_92_)" points="3233.203,-92.671 3142.562,-23.19 3122.76,-49.023 3213.402,-118.504   "/>
		
			<linearGradient id="SVGID_93_" gradientUnits="userSpaceOnUse" x1="469.7744" y1="-1370.5703" x2="579.4043" y2="-1370.5703" gradientTransform="matrix(-0.6084 -0.7937 0.7937 -0.6084 4520.6436 -438.9156)">
			<stop offset="0" style="stop-color:#D8A030"/>
			<stop offset="0.5714" style="stop-color:#FCD535"/>
		</linearGradient>
		<polygon fill="url(#SVGID_93_)" points="3175.045,0.591 3085.271,0.078 3108.578,-86.601 3122.73,-49.128 3143.356,-22.703   "/>
		<g>
			
				<linearGradient id="SVGID_94_" gradientUnits="userSpaceOnUse" x1="3101.5498" y1="159.7744" x2="3215.7539" y2="159.7744" gradientTransform="matrix(-0.7937 0.6084 0.6084 0.7937 5594.2847 -2023.6263)">
				<stop offset="0" style="stop-color:#D8A030"/>
				<stop offset="0.5714" style="stop-color:#FCD535"/>
			</linearGradient>
			<polygon fill="url(#SVGID_94_)" points="3149.049,72.568 3239.691,3.087 3219.89,-22.747 3129.246,46.734    "/>
			
				<linearGradient id="SVGID_95_" gradientUnits="userSpaceOnUse" x1="389.6611" y1="-748.4941" x2="499.292" y2="-748.4941" gradientTransform="matrix(-0.6084 -0.7937 -0.7937 0.6084 2925.187 784.0883)">
				<stop offset="0" style="stop-color:#D8A030"/>
				<stop offset="0.5714" style="stop-color:#FCD535"/>
			</linearGradient>
			<polygon fill="url(#SVGID_95_)" points="3254.164,40.92 3276.99,-45.905 3187.232,-45.916 3219.742,-22.513 3239.902,4.269         "/>
		</g>
	</g>
</g>
</svg>